<?xml version="1.0" encoding="utf-8"?>
<!-- Generator: Adobe Illustrator 27.8.1, SVG Export Plug-In . SVG Version: 6.00 Build 0)  -->
<svg version="1.1" id="Layer_1" xmlns="http://www.w3.org/2000/svg" xmlns:xlink="http://www.w3.org/1999/xlink" x="0px" y="0px"
	 viewBox="0 0 280.6 595.3" style="enable-background:new 0 0 280.6 595.3;" xml:space="preserve">
<style type="text/css">
	.st0{clip-path:url(#SVGID_00000075881735638827764740000001135047506896671637_);}
	.st1{fill:#73263E;}
	.st2{clip-path:url(#SVGID_00000027581688834197402400000003970176827268408743_);fill:#73263E;}
</style>
<g>
	<defs>
		<rect id="SVGID_1_" y="428.7" width="280.6" height="166.6"/>
	</defs>
	<clipPath id="SVGID_00000026861880614452937290000016635861604801820047_">
		<use xlink:href="#SVGID_1_"  style="overflow:visible;"/>
	</clipPath>
	<g style="clip-path:url(#SVGID_00000026861880614452937290000016635861604801820047_);">
		<path class="st1" d="M280.6,595.3V428.7c0,37.6-30.5,68-68,68H0v98.6H280.6z"/>
	</g>
</g>
<g>
	<defs>
		<rect id="SVGID_00000109707901834442588290000017530512936223170992_" x="199.3" y="0" width="81.3" height="149.4"/>
	</defs>
	<clipPath id="SVGID_00000064345430430334773050000010041304814378547359_">
		<use xlink:href="#SVGID_00000109707901834442588290000017530512936223170992_"  style="overflow:visible;"/>
	</clipPath>
	<path style="clip-path:url(#SVGID_00000064345430430334773050000010041304814378547359_);fill:#73263E;" d="M292.6,155.8
		c-1.8-12.3-5.8-23.2-10.9-32.9c0.5,0.1,1,0.2,1.5,0.2h0c0.8,0,1.7-0.2,2.5-0.7c2.4-1.4,3.2-4.4,1.9-6.8c-1.8-3.2-3.8-6.3-5.8-9.3
		c0.3,0.1,0.6,0.1,0.9,0.1c1,0,2-0.3,2.9-0.9c2.3-1.6,2.8-4.7,1.2-7c-8.5-12-18-21.9-26.3-30.7l-1.6-1.7
		c-21.8-23-31.4-34.9-31.4-52.1c0-6.3,0.8-11.8,2.4-16.5c0.9-2.6-0.5-5.5-3.1-6.4c-2.6-0.9-5.5,0.5-6.4,3.1
		c-0.1,0.3-0.2,0.6-0.3,0.9c-0.6-1.2-1.8-2.1-3.2-2.5c-2.3-0.6-4.5,0.5-5.6,2.5c-0.7-1.3-1.9-2.3-3.4-2.6c-2.7-0.6-5.4,1.1-6,3.8
		c-1.2,5.5-1.8,11.4-1.8,17.7c0,29.9,18.9,49.8,38.9,70.8l0.6,0.7c18,18.9,38.4,40.4,43,71.7c0.4,2.5,2.5,4.3,5,4.3l0,0
		c0.2,0,0.5,0,0.7,0C291.1,161,293,158.5,292.6,155.8z"/>
</g>
</svg>
