<?xml version="1.0" encoding="utf-8"?>
<!-- Generator: Adobe Illustrator 27.8.1, SVG Export Plug-In . SVG Version: 6.00 Build 0)  -->
<svg version="1.1" id="Layer_1" xmlns="http://www.w3.org/2000/svg" xmlns:xlink="http://www.w3.org/1999/xlink" x="0px" y="0px"
	 viewBox="0 0 595.3 841.9" style="enable-background:new 0 0 595.3 841.9;" xml:space="preserve">
<style type="text/css">
	.st0{clip-path:url(#SVGID_00000065053960442847584890000014268462964401009040_);fill:#73263E;}
	.st1{clip-path:url(#SVGID_00000158024326857450313570000007097240047700876704_);}
	.st2{fill:#73263E;}
</style>
<g>
	<defs>
		<rect id="SVGID_1_" x="442.2" y="0" width="153.1" height="281.3"/>
	</defs>
	<clipPath id="SVGID_00000159432120895293224500000010559141056478090937_">
		<use xlink:href="#SVGID_1_"  style="overflow:visible;"/>
	</clipPath>
	<path style="clip-path:url(#SVGID_00000159432120895293224500000010559141056478090937_);fill:#73263E;" d="M617.8,293.3
		c-3.4-23.2-10.8-43.6-20.6-62c0.9,0.3,1.8,0.4,2.7,0.4l0,0c1.6,0,3.2-0.4,4.7-1.2c4.5-2.6,6.1-8.3,3.5-12.9
		c-3.5-6.1-7.1-11.9-11-17.5c0.6,0.1,1.2,0.2,1.8,0.2l0,0c1.9,0,3.8-0.6,5.5-1.8c4.2-3,5.2-8.9,2.2-13.2
		c-16.1-22.6-33.8-41.3-49.5-57.8l-3-3.1c-41.1-43.3-59.1-65.7-59.1-98.1c0-11.8,1.6-22.2,4.6-31.1c1.7-4.9-0.9-10.3-5.8-12
		c-4.9-1.7-10.3,0.9-12,5.8c-0.2,0.6-0.4,1.1-0.5,1.7c-1.2-2.3-3.3-4-6-4.7c-4.2-1.1-8.5,0.9-10.5,4.5c-1.3-2.4-3.5-4.2-6.4-4.8
		c-5.1-1.1-10.1,2.1-11.2,7.2c-2.2,10.3-3.4,21.5-3.4,33.3c0,56.2,35.5,93.7,73.2,133.4l1.2,1.3c33.9,35.7,72.3,76.2,80.9,135
		c0.7,4.7,4.7,8.1,9.3,8.1v0c0.5,0,0.9,0,1.4-0.1C615,303.3,618.5,298.5,617.8,293.3z"/>
</g>
<g>
	<defs>
		<rect id="SVGID_00000131352521213544200440000002579961203389558409_" y="554.3" width="595.3" height="287.5"/>
	</defs>
	<clipPath id="SVGID_00000021112618264662438920000010333730832752920212_">
		<use xlink:href="#SVGID_00000131352521213544200440000002579961203389558409_"  style="overflow:visible;"/>
	</clipPath>
	<g style="clip-path:url(#SVGID_00000021112618264662438920000010333730832752920212_);">
		<path class="st2" d="M595.3,841.9V554.3c0,81.2-65.8,147-147,147H0v140.5H595.3z"/>
	</g>
</g>
</svg>
