<?xml version="1.0" encoding="UTF-8"?><svg id="Layer_1" xmlns="http://www.w3.org/2000/svg" xmlns:xlink="http://www.w3.org/1999/xlink" viewBox="0 0 841.89 595.28"><defs><style>.cls-1{fill:#73263e;}.cls-1,.cls-2{stroke-width:0px;}.cls-2{fill:none;}.cls-3{clip-path:url(#clippath-1);}.cls-4{clip-path:url(#clippath);}</style><clipPath id="clippath"><rect class="cls-2" x=".6" y="341.73" width="841.29" height="253.55"/></clipPath><clipPath id="clippath-1"><rect class="cls-2" x="692.31" width="149.58" height="297.33"/></clipPath></defs><g class="cls-4"><path class="cls-1" d="m841.89,595.28v-244.55c0,81.19-65.81,147-147,147H1.6v97.55h840.29Z"/></g><g class="cls-3"><path class="cls-1" d="m845.45,227.65c-1,0-1.98-.47-2.61-1.34-15.24-21.4-32.25-39.3-47.25-55.1l-2.86-3.01c-37.91-39.97-61.14-66.39-61.14-104.38,0-12.9,1.74-24.47,5.18-34.4,4.65-13.43,12.89-25.26,23.85-34.2,1.37-1.12,3.39-.91,4.5.46,1.12,1.37.91,3.38-.45,4.5-10.03,8.19-17.59,19.03-21.85,31.33-3.2,9.25-4.82,20.12-4.82,32.31,0,33.68,19.02,57.42,59.38,99.97l2.86,3.01c15.15,15.95,32.33,34.03,47.82,55.8,1.03,1.44.69,3.44-.75,4.46-.56.4-1.21.59-1.85.59Z"/><path class="cls-1" d="m846.4,258.4c-1.11,0-2.19-.58-2.78-1.62-17.1-30.02-40.02-54.16-60.24-75.47l-2.12-2.24c-40.74-42.96-65.48-72.15-65.48-115.26,0-11.21,1.19-21.69,3.55-31.13,3.45-13.87,9.59-26.59,18.25-37.83,8.13-10.55,18.06-19.22,29.51-25.77,1.54-.88,3.49-.34,4.37,1.19.88,1.53.35,3.49-1.19,4.37-10.72,6.13-20.02,14.25-27.62,24.12-8.11,10.53-13.87,22.46-17.11,35.47-2.23,8.94-3.36,18.9-3.36,29.59,0,41.56,24.22,69.2,63.72,110.86l2.12,2.24c20.47,21.57,43.68,46.02,61.16,76.71.87,1.54.34,3.49-1.2,4.36-.5.28-1.04.42-1.58.42Z"/><path class="cls-1" d="m845.35,292.99c-1.29,0-2.51-.79-2.99-2.06-15.5-40.79-45.19-72.09-71.38-99.7l-1.19-1.26c-35.91-37.86-69.82-73.61-69.82-126.15,0-11.08,1.06-21.59,3.16-31.26,2.79-12.88,7.56-25.11,14.19-36.36.9-1.52,2.86-2.03,4.38-1.13,1.52.9,2.03,2.86,1.13,4.38-6.28,10.66-10.8,22.26-13.45,34.47-2,9.22-3.01,19.29-3.01,29.91,0,49.98,31.54,83.24,68.06,121.74l1.19,1.26c26.61,28.05,56.77,59.84,72.72,101.83.63,1.65-.2,3.5-1.85,4.13-.37.14-.76.21-1.14.21Z"/></g></svg>