<?xml version="1.0" encoding="UTF-8"?><svg id="Layer_1" xmlns="http://www.w3.org/2000/svg" xmlns:xlink="http://www.w3.org/1999/xlink" viewBox="0 0 595.28 841.89"><defs><style>.cls-1{fill:none;}.cls-1,.cls-2{stroke-width:0px;}.cls-3{clip-path:url(#clippath-1);}.cls-4{clip-path:url(#clippath);}.cls-2{fill:#73033b;}</style><clipPath id="clippath"><rect class="cls-1" x="384.51" width="210.76" height="418.94"/></clipPath><clipPath id="clippath-1"><rect class="cls-1" x="0" y="588.34" width="595.28" height="253.55"/></clipPath></defs><g class="cls-4"><path class="cls-2" d="m600.3,320.77c-1.41,0-2.8-.66-3.68-1.89-21.47-30.15-45.44-55.38-66.58-77.64l-4.03-4.24c-53.41-56.31-86.14-93.54-86.14-147.07,0-18.18,2.45-34.48,7.29-48.47,6.55-18.92,18.17-35.59,33.6-48.19,1.93-1.57,4.77-1.29,6.34.64,1.57,1.93,1.29,4.77-.64,6.34-14.14,11.54-24.78,26.81-30.78,44.15-4.51,13.04-6.8,28.35-6.8,45.52,0,47.46,26.8,80.9,83.67,140.87l4.02,4.24c21.35,22.48,45.55,47.95,67.39,78.62,1.44,2.03.97,4.84-1.06,6.29-.79.56-1.71.84-2.61.84Z"/><path class="cls-2" d="m601.63,364.1c-1.57,0-3.09-.82-3.92-2.28-24.09-42.29-56.38-76.32-84.88-106.34l-2.99-3.15c-57.41-60.53-92.26-101.66-92.26-162.41,0-15.8,1.68-30.56,5-43.87,4.87-19.54,13.52-37.47,25.71-53.3,11.45-14.86,25.44-27.08,41.59-36.32,2.16-1.24,4.92-.49,6.15,1.67,1.24,2.16.49,4.92-1.67,6.15-15.11,8.64-28.2,20.08-38.92,33.99-11.43,14.83-19.54,31.65-24.11,49.97-3.14,12.6-4.73,26.62-4.73,41.69,0,58.57,34.12,97.51,89.79,156.2l2.99,3.15c28.85,30.39,61.54,64.84,86.17,108.08,1.23,2.16.48,4.92-1.69,6.15-.7.4-1.47.59-2.23.59Z"/><path class="cls-2" d="m600.15,412.83c-1.82,0-3.53-1.11-4.21-2.91-21.83-57.47-63.67-101.58-100.58-140.48l-1.68-1.77c-50.59-53.34-98.38-103.72-98.38-177.75,0-15.61,1.5-30.43,4.45-44.05,3.93-18.15,10.66-35.38,20-51.23,1.27-2.15,4.03-2.86,6.17-1.6,2.15,1.26,2.86,4.03,1.6,6.17-8.85,15.02-15.22,31.36-18.95,48.57-2.82,13-4.24,27.18-4.24,42.14,0,70.43,44.44,117.29,95.91,171.54l1.68,1.77c37.5,39.52,79.99,84.32,102.47,143.49.88,2.33-.29,4.93-2.61,5.82-.53.2-1.07.3-1.6.3Z"/></g><g class="cls-3"><path class="cls-2" d="m595.28,842.89v-254.55c0,81.19-65.81,147-147,147H0v107.55h595.28Z"/></g></svg>