<?xml version="1.0" encoding="UTF-8"?><svg id="Layer_1" xmlns="http://www.w3.org/2000/svg" xmlns:xlink="http://www.w3.org/1999/xlink" viewBox="0 0 595.28 841.89"><defs><style>.cls-1{fill:none;}.cls-1,.cls-2,.cls-3,.cls-4{stroke-width:0px;}.cls-2{fill:#ab1d40;}.cls-5{clip-path:url(#clippath);}.cls-3{fill:#82ccae;}.cls-4{fill:#de4827;}</style><clipPath id="clippath"><rect class="cls-1" x="180.67" y="1.7" width="414.46" height="823.86"/></clipPath></defs><g class="cls-5"><path class="cls-2" d="m605.02,632.71c-2.84,0-5.64-1.32-7.41-3.81-42.22-59.29-89.35-108.91-130.95-152.69l-7.89-8.31c-105.07-110.77-169.47-184.01-169.47-289.37,0-35.76,4.83-67.86,14.35-95.39,12.89-37.25,35.77-70.05,66.15-94.86,3.9-3.19,9.62-2.6,12.79,1.29,3.17,3.89,2.59,9.62-1.3,12.79-27.78,22.67-48.68,52.66-60.48,86.72-8.86,25.61-13.35,55.7-13.35,89.44,0,93.25,52.68,158.99,164.49,276.86l7.88,8.3c42,44.22,89.6,94.34,132.57,154.67,2.91,4.09,1.95,9.77-2.13,12.68-1.6,1.14-3.44,1.68-5.27,1.68Z"/><path class="cls-4" d="m607.64,717.92c-3.16,0-6.23-1.65-7.9-4.59-47.36-83.16-110.87-150.06-166.9-209.09l-5.86-6.18c-112.92-119.07-181.5-199.98-181.5-319.54,0-31.1,3.3-60.14,9.84-86.32,9.58-38.45,26.6-73.74,50.59-104.89,22.54-29.25,50.07-53.29,81.85-71.48,4.33-2.5,9.91-.99,12.4,3.38,2.5,4.35.98,9.91-3.37,12.4-29.69,16.98-55.42,39.46-76.47,66.79-22.46,29.15-38.39,62.19-47.36,98.2-6.18,24.74-9.31,52.3-9.31,81.92,0,115.1,67.07,191.65,176.52,307.03l5.85,6.17c56.74,59.78,121.06,127.54,169.5,212.62,2.49,4.36.96,9.91-3.4,12.39-1.42.81-2.96,1.19-4.49,1.19Z"/><path class="cls-3" d="m604.73,813.76c-3.66,0-7.11-2.23-8.5-5.87-42.92-112.96-125.15-199.65-197.71-276.14l-3.35-3.52c-99.52-104.92-193.53-204.04-193.53-349.7,0-30.72,2.94-59.88,8.75-86.67,7.72-35.67,20.96-69.59,39.34-100.82,2.56-4.33,8.12-5.76,12.44-3.22,4.33,2.55,5.77,8.12,3.22,12.45-17.4,29.55-29.93,61.66-37.24,95.44-5.54,25.53-8.35,53.4-8.35,82.82,0,138.41,87.37,230.53,188.55,337.19l3.34,3.53c73.73,77.73,157.3,165.82,201.52,282.2,1.78,4.69-.58,9.94-5.27,11.72-1.06.4-2.15.6-3.22.6Z"/></g></svg>