<?xml version="1.0" encoding="UTF-8"?><svg id="Layer_1" xmlns="http://www.w3.org/2000/svg" xmlns:xlink="http://www.w3.org/1999/xlink" viewBox="0 0 595.28 595.28"><defs><style>.cls-1{fill:none;}.cls-1,.cls-2{stroke-width:0px;}.cls-3{clip-path:url(#clippath-1);}.cls-4{clip-path:url(#clippath);}.cls-2{fill:#73033b;}</style><clipPath id="clippath"><rect class="cls-1" x="418.77" width="176.5" height="350.84"/></clipPath><clipPath id="clippath-1"><rect class="cls-1" x="0" y="347.73" width="595.28" height="247.55"/></clipPath></defs><g class="cls-4"><path class="cls-2" d="m599.48,268.63c-1.18,0-2.34-.55-3.08-1.59-17.98-25.25-38.05-46.38-55.76-65.02l-3.37-3.55c-44.73-47.16-72.14-78.34-72.14-123.17,0-15.22,2.05-28.88,6.11-40.59,5.48-15.85,15.21-29.8,28.14-40.35,1.62-1.32,3.99-1.08,5.31.54,1.32,1.62,1.08,3.99-.54,5.31-11.84,9.67-20.76,22.45-25.78,36.97-3.78,10.92-5.69,23.74-5.69,38.12,0,39.74,22.44,67.75,70.07,117.97l3.37,3.55c17.88,18.82,38.14,40.16,56.43,65.84,1.21,1.7.81,4.06-.88,5.26-.66.47-1.43.7-2.19.7Z"/><path class="cls-2" d="m600.6,304.91c-1.31,0-2.59-.69-3.28-1.91-20.17-35.42-47.22-63.91-71.08-89.05l-2.5-2.64c-48.07-50.69-77.26-85.13-77.26-136.01,0-13.23,1.41-25.59,4.19-36.74,4.08-16.36,11.32-31.38,21.53-44.63,9.59-12.44,21.31-22.68,34.83-30.41,1.81-1.03,4.12-.41,5.15,1.4,1.04,1.81.41,4.12-1.4,5.15-12.65,7.24-23.62,16.82-32.6,28.47-9.57,12.42-16.36,26.5-20.19,41.85-2.63,10.55-3.96,22.3-3.96,34.91,0,49.05,28.57,81.66,75.19,130.81l2.5,2.64c24.16,25.45,51.54,54.3,72.16,90.51,1.03,1.81.4,4.12-1.41,5.15-.59.34-1.23.5-1.87.5Z"/><path class="cls-2" d="m599.36,345.72c-1.52,0-2.96-.93-3.53-2.44-18.29-48.13-53.32-85.06-84.23-117.65l-1.41-1.48c-42.37-44.67-82.39-86.86-82.39-148.85,0-13.07,1.25-25.48,3.72-36.89,3.29-15.2,8.93-29.63,16.74-42.91,1.06-1.8,3.37-2.4,5.17-1.34,1.8,1.06,2.4,3.37,1.34,5.17-7.41,12.58-12.75,26.26-15.87,40.67-2.36,10.88-3.55,22.76-3.55,35.29,0,58.98,37.22,98.22,80.32,143.66l1.41,1.48c31.4,33.1,66.99,70.61,85.81,120.16.74,1.95-.24,4.13-2.19,4.87-.44.17-.89.25-1.34.25Z"/></g><g class="cls-3"><path class="cls-2" d="m595.28,602.28v-254.55c0,81.19-65.81,147-147,147H0v107.55h595.28Z"/></g></svg>