<?xml version="1.0" encoding="UTF-8"?><svg id="Layer_1" xmlns="http://www.w3.org/2000/svg" viewBox="0 0 9436.36 6533.34"><defs><style>.cls-1{font-family:Helvetica, Helvetica;font-size:6px;}.cls-2{fill:#72253d;}.cls-2,.cls-3{stroke-width:0px;}.cls-3{fill:none;}</style></defs><path class="cls-2" d="m3821.9,2593.47l-27.75,27.75,48.88,48.88,27.75-27.75-48.88-48.88Zm32.07-32.06l80.94,80.94-32.07,32.07-59.82,59.82-19.28-19.29-61.66-61.66h0s-32.07-32.06-32.07-32.06l91.89-91.88,32.07,32.07Zm593.01-717.1l-519.06,519.34,34.41,34.26,518.96-518.97-34.31-34.64Zm66.23,66.85l-311.51,311.51,312.5,310.17,32.88-33.22-278.85-277.75,35.58-35.73.54.54,242.04-242.05-33.17-33.48Zm65.1,65.7l-241.83,241.83,246.07,245.1,35.71-36.08-215.21-206.82,17.3-17.3-.23-.23,189.4-195-31.21-31.5Zm-97.72,589.93l-312.65-310.36-35.97,35.96,317,306.34,31.62-31.94Zm-63.33,63.98l-317.34-306.33-33.37,33.37,277.34,279.47-10.21,10.21h0s-253.61,255.33-253.61,255.33l37.1,37.19,300.02-307.4-.87-.88.95-.96Zm31.65,33.86l-299.75,307.45,29.56,29.63,303.1-303.85-32.92-33.23Zm-400.88,206.08l231.92-233.49-245.47-247.35-40.02,40.01,176.03,175.26.07-.07,29.89,29.91,1.65,1.64h0s.51.52.51.52l-193.45,194.62,38.86,38.96Zm90.5-233.41l-242.66-241.58-36.93,36.95,173.26,173.05h.01s23.31,23.3,23.31,23.3l8.24,8.24h0s.51.52.51.52l-193.28,194.59,36.9,36.96,230.63-232.01Zm-299.57,162.97l161.29-162.38-173.36-173.16-161.55,161.64,173.62,173.89Zm593.42-1005.5l1.16,1.16,267.7-269.79v71.58l-213.96,215.63,160.89,162.39,28.07-28.07-137.41-134.6,162.41-158.03v70.34l-90.23,87.81,90.23,88.38v92.39l-226.18,226.2,215.01,206.63-202.81,204.91,192.88,194.69-206.32,212.41,227.42,221.59v22.88h-48.76l-249.9-243.48,206.94-213.05-32.51-32.82-239.83,242.06,247.28,247.28h-64.12l-215.08-215.07-32.07-32.07,271.91-274.42-31.34-31.63-303,303.73,248.9,249.47h-64.06l-418.4-419.35-37.26,37.49,381.28,381.86h-64.06l-655.29-656.28-.61-.61,831.12-831.6Zm268.86,1329.59v67.25l-1.66,1.7-160.44-157.17,162.1-162.96v71.49l-90.54,91.01,90.54,88.68Zm0-405.61v67.26l-1.66,1.7-160.74-157.45,162.41-158.03v70.34l-90.23,87.8,90.23,88.39Zm0-557.24v110.45l-55.51-53.93,55.51-56.51Zm-175.23,56.51l175.23-178.41v71.96l-103.74,105.62,103.74,100.8v70.29l-175.23-170.26Zm175.23,370.71v83.31l-42.67-41.8,42.67-41.52Zm0,404.82v84.1l-42.37-41.51,42.37-42.59Zm-42.67-1180.48l42.67-41.52v83.31l-42.67-41.8Zm-1127.29,1307.96l157.88,162.24h-70.34l-87.65-90.08-88.25,90.08h-65.4c-1.38,0-2.71-.54-3.7-1.51h0s157.45-160.73,157.45-160.73ZM2499.05,69.88L2430.41-.65h137.74l-69.1,70.54Zm1524.78,878.84c-15.55,8.84-29.9,19.49-42.93,31.58h.11l-.02,336.47c12.99,12.05,27.3,22.66,42.8,31.48l.03-399.53Zm44.44-19.51l-.02,438.56c14.9,4.68,30.44,7.84,46.46,9.38l.02-457.32c-16.02,1.55-31.56,4.7-46.46,9.38m90.92-9.38l-.02,457.32c18.52-1.79,36.32-5.95,53.3-11.89l-.02-433.56c-16.98-5.93-34.76-10.09-53.27-11.88m97.71,33.04l.03,391.23c15.54-9.57,29.99-20.73,42.8-33.6v-323.01s.9,0,.9,0c-13.06-13.27-27.8-24.81-43.73-34.61m87.26,96.96l.02,197.29c14.31-29.94,22.55-63.29,22.55-98.62s-8.26-68.72-22.57-98.66m-407.61,210.74v-224.17c-18.63,33.19-29.38,71.39-29.38,112.09s10.74,78.89,29.38,112.08m200.41-376.96c146.05,0,264.89,118.83,264.89,264.88s-118.83,264.89-264.89,264.89-264.9-118.82-264.9-264.89,118.85-264.88,264.9-264.88m.21-42.4c-169.44,0-307.27,137.85-307.27,307.28s137.83,307.29,307.27,307.29,307.29-137.85,307.29-307.29-137.85-307.28-307.29-307.28m0-37.79c190.28,0,345.09,154.79,345.09,345.07s-154.8,345.08-345.09,345.08-345.09-154.79-345.09-345.08,154.82-345.07,345.09-345.07m-11.26-43.96c-214.52,0-389.05,174.52-389.05,389.04s174.53,389.04,389.05,389.04,389.03-174.52,389.03-389.04-174.53-389.04-389.03-389.04m0-38.95c236,0,428.01,191.99,428.01,427.99s-192.01,428-428.01,428-428.01-191.99-428.01-428,192.01-427.99,428.01-427.99m-.02-41.2c-258.72,0-469.19,210.48-469.19,469.19s210.47,469.2,469.19,469.2,469.2-210.49,469.2-469.2-210.49-469.19-469.2-469.19m0-39.78c280.64,0,508.96,228.33,508.96,508.97s-228.32,508.96-508.96,508.96-508.95-228.31-508.95-508.96,228.31-508.97,508.95-508.97M2037.38,271.52v68.62l255.92-255.93,202.05,203.4,227.8-237.02-71.44.06-148.79,162.65-161.09-163.38-87.39-.09-217.07,221.69Zm730.34-220.98l362.41,380.42c10.72-16.63,21.01-33.02,30.88-49.12l-315.99-331.37-77.29.07Zm456.26,324.29l1.26,1.32-4.77,4.55c-42.04,70.48-92.53,147.92-150.93,225-79.5,104.9-196.89,210.44-349.4,314.41v184.68c146.01-88.07,340.16-223.64,459.4-381,141.28-186.45,235.37-374.78,273.41-456.89,1.29-2.81,11.35-25.21,12.54-27.76.42-.92.98-1.63,1.51-2.38l-39.97-39.98c-.21,2.02-.58,3.98-1.39,5.73-35.27,77.36-134.4,281.38-285.1,480.27-85.21,112.42-213.95,225.57-382.77,336.74v-60.81c121.77-82.67,253.27-188.36,342.66-306.32,141.64-186.94,235.86-375.76,273.7-457.53,1.79-3.88,12.77-26.43,16.57-34.41l-35.53-35.54c-20.62,45.48-65.14,138.56-131.19,249.92m18.26-135.05c8.91-16.74,17.09-32.52,24.55-47.23l-137.82-142.09h-69.44s182.71,189.33,182.71,189.33Zm262.37,34.6c-1.98,4.29-10.75,23.77-11.85,26.09-42.37,89.88-136.08,272.87-273.1,453.7-91.31,120.49-232.46,241.83-419.57,360.64-28.08,17.84-54.82,34.03-79.94,48.81v177.52c112.64-57.97,443.22-240.55,616.12-468.73,145.61-192.18,241.09-386.36,276.75-464.16.77-1.68,5.85-11.63,8.51-16.93l-43.61-43.62c-.12.29-.16.58-.3.87-1.2,2.59-11.36,25.11-12.67,27.91-41.11,87.76-135.81,274.58-275.68,459.16-91.29,120.49-232.48,241.83-419.57,360.64-40.45,25.69-78.22,48.1-111.92,67.34v-58.38c148.45-86.83,363.17-230.78,491.39-399.98,146.43-193.24,242.16-388.5,277.34-465.43,1.25-2.76,11.34-25.18,12.46-27.61.36-.81.88-1.44,1.41-2.05l-35.77-35.77Zm154.83,154.86c-2.68,5.29-7.55,14.76-8.26,16.26-41.55,88.53-135.93,274.03-274.8,457.31-91.33,120.49-232.48,241.83-419.58,360.64-108.59,68.96-199.85,115.92-236.66,134.15v188.19c110.54-60.1,385.95-215.02,582.3-369.33,63-52.65,120.37-108.48,166.86-166.46,181.62-226.53,273.98-418.46,301.63-480.98,2.25-5.11,5.44-12.47,8.55-19.69l-37.91-37.92c-4.09,9.08-11.2,24.91-12.46,27.55-12.18,25.8-30.48,62.39-55.7,107.52-47.03,84.15-128.08,215.09-247.19,361.02-115.48,141.48-303.73,285.12-559.51,426.92-37.96,21.05-74.52,40.35-108.97,57.98v-50.55c203.53-105.88,478.15-271.76,633.9-462.58,183.59-224.93,277.62-416.06,305.81-478.33,2.63-5.81,6.62-14.83,10.34-23.31l-48.38-48.38Zm-111.42,603.81c.08-.4.17-.81.25-1.21-.38.49-.72.95-1.08,1.44l.84-.23Zm-34.4,43.79c-3.54,4.5-7.17,9.11-10.93,13.83-11.21,14.08-24.08,28.68-38.47,43.73h49.4v-57.57Zm0,102.19h-95.13c-18.72,17.17-39.29,34.89-61.64,53.15h156.77v-53.15Zm179.29-369.13c-15.66,25.56-33.18,53.06-52.58,82.12-39.71,76.04-62.28,162.4-62.28,253.96,0,303.49,246.92,550.38,550.39,550.38s550.38-246.9,550.38-550.37c0-269.47-194.71-494.17-450.79-541.19h-2.72v-.49c-31.47-5.61-63.81-8.71-96.87-8.71-63.82,0-125.15,10.92-182.21,31l-8.52,3.08c-97.6,36.16-182.19,99.28-244.8,180.22m809.16,793.85c-64.62,52.83-140.52,92.38-223.56,114.18l54.82,54.51,168.74-168.69Zm-208.83,208.77l-81.59-81.14c-13.88,1.96-40.5,4.29-54.66,5.27l106.4,105.72,29.86-29.85Zm-69.68,69.65l-147.56-147.07c-34.91-2.29-55.55-6.77-88.57-14.88l200.01,198.07,36.12-36.11Zm-709.95-605.36h-213.62c-21.27,16.1-43.8,32.57-67.6,49.41h281.22v-49.41Zm0,147.17v-53.13h-345.96c-25.81,17.36-52.89,35.07-81.17,53.13h427.12Zm633.8,534.31l-288.89-286.34c-141.61-72.96-250.1-201.46-296.58-356.51v137.59l547.09,543.62,38.37-38.36Zm-633.8-489.68h-498.4c-33.51,20.6-66.13,40.13-96.99,58.24h595.38v-58.24Zm559.44,564.02l-45.89-45.61-465.21-462.23v64.09l478.81,476.04,32.3-32.29Zm-66.07,66.05l-445.03-442.49v67.77l413.31,406.44,31.73-31.72Zm-73.79,73.77l-46-45.67-54.47-54.08-51.69-51.34-54.47-54.07-55.4-55.02-54.47-54.08-54.75-54.37v70.71l334.36,334.79,36.89-36.87Zm-69.45,69.43l-74.67-74.67.54-.54-227.66-227.96v67.34l269.38,268.24,32.41-32.4Zm-64.49,64.46l-237.31-236.31v65.64l204.09,203.87,33.21-33.21Zm-65.28,65.27l-172.02-171.84v59.76l142.07,142.02,29.95-29.94Zm-62.02,62l-37.7-37.69-350,351.63,37.54,37.62,157.05-158.34-.08-.09,19.62-19.62.63-.63h0s172.94-172.88,172.94-172.88Zm-163.29,227.54l-154.83,156.13,36.83,36.91,154.76-156.2-36.76-36.83Zm68.79,68.93l-154.76,156.21,38.03,38.1,154.84-156.13-38.11-38.18Zm70.14,70.28l-154.84,156.13,36.84,36.92,154.76-156.22-36.76-36.83Zm68.79,68.93l-154.76,156.22,34.91,34.98,154.84-156.14-34.99-35.06Zm67.03,67.16l-154.85,156.14,36.84,36.92,154.76-156.23-36.76-36.83Zm68.79,68.93l-154.77,156.22,37.56,37.64,154.85-156.15-37.64-37.71Zm69.67,69.81l-158.63,163.78,51.97,2.44,137.23-136.42-30.58-29.79Zm-669.67-359.73l349.96-351.59-36.79-36.78-350.01,351.46,36.84,36.92Zm-68.88-69.02l323.97-325.3h-72.55l-287.6,289.04,36.19,36.26Zm-68.23-68.36l255.66-256.94h-76.42l-217.26,218.84,38.02,38.11Zm-103.2-39.41l-98.95-99.06c-200.48,106.19-459.05,266.06-608.5,449.14-111.99,137.21-190.4,261.51-241.07,351.92h46.39c48.68-81.89,120.53-191.09,218.01-310.52,115.5-141.48,303.73-285.12,559.5-426.93,9.04-5.01,17.82-9.72,26.65-14.5l32.89,33.31c-196.72,106.04-440.99,260.55-584.47,436.34-85.49,104.73-151.26,201.84-200.28,282.3h52.34c45.09-70.28,102.99-152.88,175.1-241.23,115.49-141.48,303.73-285.13,559.51-426.92,21.6-11.98,42.4-23.07,62.87-33.85m-3.71-67.72l36.85,36.93,185.39-186.74h-73.7l-148.55,149.81Zm505.42-193.14v-47.17h-411.97l46.39,47.17h365.58Zm0-90.5v-48.28h-502.05l47.48,48.28h454.58Zm0-92.91v-47.09h-592.25l46.31,47.09h545.94Zm0-91.71v-43.85h-679.26l43.11,43.84h636.14Zm0-88.47v-54.53h-776.77l53.63,54.53h723.14Zm0-150.44h-793.48v51.28h793.48v-51.28Zm-793.48-44.63h793.48v-54.52h-793.48v54.52Zm793.48-99.15v-48.51h-672.69c-33.74,19.15-63.36,35.55-87.09,48.51h759.79Zm-847.95,153.51v-1023.55l-49.58-.54v973.02l49.58,51.07Zm-94.2-97.05v-927.53l-52.2-.56v874.32l52.2,53.78Zm-96.83-99.75v-828.83l-49.02-.54v778.88l49.02,50.49Zm-93.65-96.48v-733.37l-49.47-.54v682.95l49.47,50.96Zm-94.1-92.5v-641.89l-55.06-.6v585.77l55.06,56.72Zm-99.68-98.25v-544.73l-49.33-.53v494.45l49.33,50.81Zm-93.97-92.36v-453.4l-40.79-.44,1.95,413.83,38.84,40Zm626.89-507.07v168.5c87.27-61.52,176.91-134.17,250.76-214.02h-64.61c-44.14,40.7-93.61,81.35-148.52,121.81v-63.54c24.36-18.66,48.39-38.22,72.03-58.27h-792.42v43.79l682.76,1.73Zm223.68-89.97l-39.07-41.72h-867.37v41.72h906.44Zm-80.7-86.18l-43.7-46.67-782.04,3.51v43.16h825.74Zm-85.16-90.94l-40.21-42.94-41.83,43.31,82.03-.37Zm233.29,175.39c6.21-7.63,12.3-15.3,18.17-23.04,3.34-4.41,6.59-8.82,9.88-13.23l-300.79-315.35-167.64,177.16,54.66-.25,112.8-116.77,272.92,291.48Zm-713.94-240.88l64.21,67.37,59.87-.27-126.7-123.76-121.58,124.88,58.54-.26,65.65-67.95Zm-259.93,68.82l65.07-.29,191.35-196.54,199.42,194.78,8.05-.04-.05-.05,237.14-250.61,331.09,347.11c11.07-15.58,21.8-31.1,32.18-46.49l-356.24-373.95-249.45,259.54-202.76-204.12-254.35,254.36-1.45-1.46v17.76ZM3548.27,42.91l420.23,419.61,417.93-419.39-52.78.09-365.24,366.54-367.38-366.94-52.78.1Zm422.79,70.55l69.81-70.06-139.88.25,70.07,69.81Zm-128.8-69.71l-55.72.1,183.88,183.24,183.22-183.88h-2.82s-51.23.09-51.23.09l-128.44,128.9-128.9-128.44Zm-178.1-1.05l304.14,303.93,302.25-303.32-54.4-.06-246.87,247.76-249.14-248.26-55.98-.06Zm-852.77,2890.88l.1,53.89,69.35,69.34v-.02l31.44,31.44-100.45,100.43.1,53.71,154.13-154.13-154.67-154.67Zm.34,192.35l37.66-37.68-37.81-37.8.15,75.48Zm96.92-754.75l52.53-53.2h-105.62l53.09,53.2Zm-221.76-53.2h-694.06v-753.04l-35.88-35.8v833.2h653.72c24.74-14.8,49.96-29.59,76.22-44.36m-729.94,87.69v40.73h521.08c20.09-13.58,41.02-27.16,62.34-40.73h-583.42Zm0,84.06v47.39h396.11c20.09-15.8,41.21-31.59,63.01-47.39h-459.12Zm0,90.73v47.87h289.54c16.95-15.94,34.89-31.9,53.62-47.87h-343.16Zm0,91.2v43.5h205.83c12.46-14.48,25.81-28.99,39.79-43.5h-245.61Zm80.5-1062.18v663.89h731.21c.95-.5,1.94-1.04,2.89-1.54l1.58,1.54h37.14l.38-.38.38.38h141.07l-36.69-40.44h-839.37v-584.96l-38.58-38.5Zm83.21,83.03v495.79h750.1l-37.94-37.95h-674.2v-419.96l-37.96-37.88Zm82.58,82.4v330.81h584.96l-37.33-37.32h-510.31v-256.26l-37.31-37.23Zm81.94,81.76v167.11h421.06l-35.89-36.5h-350.16v-95.67l-35.01-34.94Zm79.33,79.16v5.36h5.37l-5.37-5.36Zm-407.56,822.66v48.46h132.52c12.06-15.89,24.75-32.1,37.76-48.46h-170.28Zm0,91.79v36.79h73.96c8.46-12.05,17.22-24.32,26.3-36.79h-100.25Zm0,80.12v68.19c13.48-21.52,28.05-44.18,44.18-68.19h-44.18ZM2037.38,75.46l32.82-33.33-32.82.2v33.14Zm0,59.89v64.11L2233.28-.61l129.67.14,138.61,140.58L2629.5.25l237.07-.22,321.32,336.95c10.24-17.47,19.94-34.45,29.06-50.8L2940.82.05h209.47s140.17,144.51,140.17,144.51c12.7-26.46,21.61-46.32,26.61-57.75L3231.64,1.37l1469.58-.92-32.35,32.69h32.35v42.01h-73.92l-32.53,32.87h106.46v42.01h-148.03l-33.55,33.91h181.58v42.01h-223.15l-32.72,33.07h255.88v42.01h-297.45l-33.56,33.91h331.01v42.01h-372.58l-33.04,33.39h405.62v42.01h-447.19l-33.56,33.91h480.75v42.01h-522.32l-.59.6c-17.3-1.44-34.76-2.35-52.42-2.35-2.84,0-5.65.18-8.47.21l480.33-484-37.71.07-483.86,485.86c-24.73,1.96-49.08,5.22-72.93,9.97l493.67-495.72-47.39.09-480.92,482.61-483.46-482.6-47.4.09,511.7,508.86c-16.01,4.71-31.75,10.03-47.21,15.96L3374.66,43.22l-37.73.08,535.88,534.82,1.31,1.4c-14.75,6.5-29.27,13.47-43.4,21.05l-17.34-17.34c-3.35,7.62-7.77,17.69-8.29,18.86-8.74,19.11-21.1,44.89-37.46,76.28,32.17-24.89,66.74-46.83,103.69-64.75l38.61-17.06c67.63-27,141.36-41.85,218.51-41.85,33.02,0,65.38,2.85,96.95,8.08h475.85v42.01h-335.01c23.51,10.37,46.28,22.11,68.07,35.33h266.94v42.01h-206.76c14.12,11.17,27.71,22.95,40.75,35.33h166.01v42.01h-125.89c9.9,11.43,19.44,23.17,28.46,35.33h97.43v42.01h-69.02c7.09,11.51,13.73,23.31,20.03,35.33h48.98v42.01h-28.9c11.72,27.39,21.38,55.86,28.9,85.17v293.03c-21.64,84.47-61.43,161.74-115.07,227.31l115.07-115.03v64.15l-1160.41,1160.41,652.81,654.09-116.13,9.26,25.98-30.05-42.68-48.12-68.33,68.9h-63.87l100.17-100.99-38.11-38.18-137.89,139.17h-97.18l-710.52-711.4c-202.11,106.09-468.46,268.91-620.99,455.76-62.21,76.22-113.84,148.3-156.35,213.01h55.13c37.23-54.27,80.95-113.65,131.73-175.86,115.48-141.48,303.73-285.12,559.51-426.92,10.43-5.78,20.54-11.22,30.7-16.7l32.89,33.3c-197.41,106.1-444.06,261.56-588.52,438.55-41.94,51.39-79.11,100.94-111.95,147.63h53.06c25.11-34.16,52.37-69.66,82.21-106.23,113.8-139.42,298.41-280.93,548.52-420.72l-.25-.25c8.52-4.69,16.67-9.04,24.6-13.21,4.47-2.41,8.99-4.89,13.46-7.31l.22.26c.99-.5,2.07-1.08,3.05-1.57l397.63,396.3-194.86,195.35h-62.81l194.57-195.25-342.44-341.27c-11.46,6.35-23.06,12.88-34.73,19.52l290.55,290.54v-.02s31.44,31.44,31.44,31.44l-195.03,195.03h-62.87l195.02-195.02-298.95-298.94c-10.97,6.45-22,13.05-33.06,19.73l247.77,247.78.02-.02,31.44,31.44-195.05,195.03h-62.87l195.03-195.02-255.29-255.28c-11.11,6.95-22.21,14.01-33.32,21.18l202.67,202.67.03-.02,31.43,31.44-195.03,195.03h-62.87l195.02-195.02-209.17-209.17c-11.27,7.55-22.48,15.19-33.66,22.94l154.79,154.8.02-.02,31.44,31.44-195.03,195.03h-66.54l-.59-326.08c-13.48,10.26-26.74,20.68-39.82,31.22l.53,294.86h-44.64l-.45-257.6c-12.96,11.25-25.65,22.62-37.99,34.14l.4,223.47h-44.65l-.31-179.69c-13.52,14.02-26.32,28.22-38.62,42.55l.23,137.14h-44.64l-.14-82.6c-22.19,28.24-42.96,55.84-62.32,82.6h-626.02V.85h44.46v3239.8h40.23c11.37-23.01,26.09-51.43,44.58-84.51,47.02-84.15,128.08-215.09,247.2-361,115.47-141.49,303.71-285.13,559.49-426.94,6.73-3.73,13.28-7.25,19.88-10.84l32.92,33.32c-195.53,105.92-435.84,258.84-577.73,432.66-142.25,174.3-230.47,327.89-276.19,417.31h48.97c3.38-6.2,6.87-12.55,10.55-19.13,47.02-84.15,128.08-215.08,247.2-361.02,115.47-141.48,303.72-285.12,559.5-426.92,17.2-9.54,33.87-18.49,50.35-27.25l-88.24-88.35h-10.84c-197.34,105.22-447.34,261.04-595.04,439.31v1.19h-1.02c-1.01,1.22-2.12,2.41-3.12,3.64-135.31,165.77-221.82,312.99-269.33,403.98v-93.09c.11-.19.24-.4.35-.59v-1587.64l-1.32-1.32,1.32-1.32v-60.46l452.02,451.11v.23l68.3,68.16h65.2l-585.53-579.78v-60.93l648.77,640.71h62.86l-711.62-710.29V.34h44.46v1211.56l1085.84,1087.98-102.09,103.42,35.48,35.55,128.85-129.96-1067.64-1085.53v2.75l-44.46-44.1V.34h38.59l139.58-.83-133.72,135.83Zm-938.64,2136.85c-33.7-12.73-70.04-20.02-108.14-20.02s-74.44,7.29-108.14,20.02h216.28Zm-294.3,43.33c-15.52,11.86-29.83,25.13-42.83,39.68h457.98c-13-14.55-27.31-27.82-42.83-39.68h-372.32Zm-75.19,83.01c-9.38,15.16-17.53,31.12-24.2,47.87h571.11c-6.67-16.75-14.82-32.71-24.2-47.87h-522.71Zm-37.75,91.2c-3.6,15.4-6,31.21-7.18,47.39h612.57c-1.18-16.18-3.58-32-7.18-47.39h-598.21Zm-7.26,90.73c1.1,16.34,3.4,32.32,6.96,47.87h598.8c3.57-15.55,5.86-31.53,6.96-47.87h-612.73Zm20.39,91.2c5.96,15.14,13.09,29.64,21.27,43.5h529.42c8.18-13.86,15.31-28.36,21.27-43.5h-571.95Zm51.97,86.83c10.32,12.12,21.58,23.38,33.64,33.77h400.74c12.05-10.4,23.32-21.65,33.64-33.77h-468.01Zm99.43,77.1c40.71,19.94,86.27,31.44,134.57,31.44s93.86-11.51,134.57-31.44h-269.14Zm-80.52-561.3v-2.09h2.8c59.41-44,132.86-70.08,212.3-70.08,197.12,0,357.49,160.37,357.49,357.49s-160.37,357.47-357.49,357.47-357.48-160.36-357.48-357.47c0-116.43,55.97-220,142.39-285.32m889.55,285.32c0-276.48-167.24-514.56-405.84-618.56l-35.1,31.27c233.3,93.08,398.65,321.17,398.65,587.29,0,348.57-283.59,632.16-632.17,632.16s-632.16-283.58-632.16-632.16c0-317.08,234.75-580.05,539.53-625.01l54.27-48.35h-.02l55.89-49.79s.01,0,.01,0l382.79-341.04-82.15-.17-330.89,294.79v1.02s-1.14,0-1.14,0l-123.29,109.84-1.41-1.59-.24.21c-305.53,64.17-535.66,335.74-535.66,660.08,0,371.9,302.57,674.46,674.47,674.46s674.46-302.56,674.46-674.46m-936.63,673.97c-51.43-20.08-100.08-45.76-145.04-76.5l70.2,76.5h74.85Zm-506.55-729.54v259.04l138.52,150.97c-59.19-104.83-93.15-225.71-93.15-354.44,0-18.76.91-37.29,2.32-55.69l-47.69.12Zm-50.41-50.28h.17s0-.13,0-.13l103.48-.34c2.28-15.42,5.18-30.64,8.42-45.73l-153.3.21v255.43l41.24,44.95v-254.38Zm233.61-318.12c20.66-28.46,43.3-55.37,67.79-80.5l-67.55-.21-.25,80.71Zm179.68,1097.95l-505.17-559.22.23-.35v-316.59l216.28-.29c14.53-49.74,34.41-97.19,58.72-141.9h-.4s.65-210.88.65-210.88l170.05.54v1.53c18.78-15.83,38.41-30.67,58.75-44.55l-273.64-1.94-.41,346.78-276.44.98v403.71l480.17,522.19h71.22Zm223.99-1373.99c10.85-2.82,21.81-5.32,32.84-7.67l68.72-61.22-101.9-.55.34,69.44Zm-51-120.13l208.81,1.13,47.27-42.11-297.91-.82.45,192.75c13.81-5.68,27.81-10.99,42.04-15.83l-.65-135.12Zm-131,195.32c12.85-7.51,25.91-14.71,39.25-21.44l-.61-266.24,404.85,1.12,53.02-47.24-496.51-.97v334.77Zm-177.08-150.73l-41.27-.24-29.71,29.78,99.84.6.14-100.83-28.94,29.01-.07,41.68Zm79.2,80.87l-200.17-1.21-45.49,45.61,293.13,2.08v-295.95l-48.61,48.74h1.43s-.28,200.73-.28,200.73Zm-129.53-134.93v-.73s.73,0,.73,0l176.26-176.89v-2.86h2.84s71.46-71.71,71.46-71.71L24.58,853.95l.09,53.27,539.36,539.35h.02s31.44,31.41,31.44,31.41L26.69,2046.78l.1,57.08,372.55-373.88Zm-242.21,305.72l-35.85,35.94-.08,51.19-50.83-.15-34.32,34.41,122.09-.16-1-121.23Zm-130.56-51.68l506.01-506.01L24.78,970.19l.09,52.9,423.47,423.48h.02s31.43,31.41,31.43,31.41L26.49,1931.31l.09,52.71Zm-.2-115.47l390.54-390.54L24.99,1086.08l.09,54.6,305.9,305.9h.02s31.43,31.41,31.43,31.41L26.28,1814.16l.09,54.4Zm-.21-117.15l273.38-273.39L25.2,1203.66l.1,56.7,186.22,186.22h.02s31.43,31.41,31.43,31.41l-216.89,216.91.1,56.5Zm-.21-119.25l154.12-154.13-154.67-154.68.09,53.9,69.35,69.35h.02s31.43,31.41,31.43,31.41l-100.44,100.44.1,53.71Zm-.21-116.46l37.67-37.67-37.81-37.8.13,75.48Zm60.24-663.53l39.57,39.43,1030.55,2.07-41.91-41.5H85.99Zm983.32-44.46l-55.68-55.14v55.14h55.68Zm131.78,130.5l-1030.92-2.17,46.64,46.48,1031.11,2.07-46.84-46.38Zm91.82,90.92l-1031.5-2.17,53.76,53.56,1031.73,2.07-53.99-53.46Zm98.97,98.01l-1032.11-2.17,46.64,46.48,1032.3,2.07-46.84-46.38Zm91.82,90.92l-1032.69-2.17,51.42,51.24,1032.89,2.06-51.63-51.13Zm96.61,95.67l-1033.28-2.17,46.64,46.48,1033.47,2.07-46.83-46.38Zm91.82,90.92l-1033.85-2.18,47.22,47.06,1034.09,2.12-47.46-47Zm70.04,6.79v-61.31l-728.54-721.45v61.31l728.54,721.45Zm0-123.87v-70.55L1013.63,495.57v70.55l728.54,721.46Zm0-133.11v-69.31L1013.63,363.69v69.32l728.54,721.45Zm0-131.87v-63.52L1013.63,234.79v66.34l728.54,721.46Zm0-126.21v-65.57L1013.63,109.36v62.75l728.54,724.27Zm-1044.7,597.62l-55.48,55.62,533.87,1.04v3.46s66.23-59.01,66.23-59.01l-544.61-1.12Zm760.12,1.56l-387.35,345.1h0l-50.67,45.15h0l-47.26,42.1c.05,0,.11,0,.16,0l-60.48,53.89c-284.55,38.53-504.64,282.87-504.64,577.82,0,321.61,261.65,583.26,583.26,583.26s583.27-261.65,583.27-583.26c0-254.28-163.66-470.84-391.09-550.46l-31.8,28.34c223.18,68.68,385.89,276.71,385.89,522.12,0,301.2-245.04,546.26-546.26,546.26s-546.26-245.06-546.26-546.26,226.19-526.76,511.01-545.01l136.75-121.83s-.01,0-.02,0l46.35-41.29s0,0,.01,0l399.32-355.75-80.18-.17Zm-870.59,1064.04c0,222.55,181.06,403.6,403.6,403.6s403.61-181.05,403.61-403.6-181.06-403.6-403.61-403.6-403.6,181.05-403.6,403.6m1017.43-1063.74l-626.19,557.88-.21-.24-10.43,9.29c-263.6,12.06-474.34,230.28-474.34,496.8s223.11,497.36,497.35,497.36,497.36-223.12,497.36-497.36c0-234-162.49-430.63-380.52-483.34l-41.75,37.2c213.88,35.89,377.41,222.23,377.41,446.15,0,249.51-202.99,452.49-452.5,452.49s-452.5-202.98-452.5-452.49,202.99-452.49,452.5-452.49c5.02,0,10,.22,14.98.38l88.7-79.02,4.8-4.28,128.84-114.79,26.23-23.38h0l437.72-389.98-87.46-.18Zm-92.39,563.08c16.4,17.07,31.96,34.95,46.65,53.55v-438.26l-46.65,41.56v343.15Zm-134.53-223.29l-78.55,69.98c27.11,12.86,53.4,27.18,78.55,43.16v-113.14Zm43.33,142.92c16.53,12.27,32.47,25.27,47.87,38.86v-263.03l-47.87,42.65v181.51Zm229.79-386.24l-47.87,42.65v539.79c17.92,28.39,33.97,58.07,47.87,88.93v-671.37Zm-774.29-784.64v-45.21H-4l45.37,45.21h834.95Zm-190.46-179.32v-45.21H136.47V134.05h-34.6v494.33h584ZM57.41,44.38h-31.39v584h31.39V44.38Zm123.51,180.19v314.14h414.55v-45.53H217.31V224.57h-36.38Zm80.83,92.84v131.3h239.96v-48.39h-198.72v-82.92h-41.24Zm153.45,0h-67.76v38.46h67.76v-38.46Zm44.46,38.46h42.04v-131.3h-239.96v48.39h197.91v82.92Zm42.04-175.77h44.46v268.61h49.3V134.05H180.93v46.06h320.79ZM101.87,44.38v45.21h515.64v.08h22.42v449.03h45.94V44.38H101.87Zm1500.15,2901.05v338.56h-43.33v-277.39c-14.68,18.62-30.24,36.49-46.65,53.57v223.81h-43.33v-182.22c-15.41,13.61-31.33,26.65-47.87,38.93v143.29h-43.33v-113.67c-14.38,9.14-29.01,17.92-44.05,26.05v87.62h-43.33v-66.22c-13.85,6.32-27.9,12.26-42.19,17.72v48.5h-43.33v-33.36c-67.66,20.99-139.53,32.33-214,32.33-14.26,0-28.39-.53-42.45-1.34v2.38H345.86s-3.92,0-3.92,0l-308.57-335.19v64.82l249.26,270.37h-68.91l-.36-.4h-62.9l.36.4h-68.77l-.36-.4h-2.03v-2.2l-46.29-50.28v52.88H-17.05v-182.09l121.03,131.29h62.96l-183.99-199.87v-139.28h0v-74.3l381.52,413.84h80.07L-17.06,2730.84v-74.29h0s0-399.1,0-399.1l276.5-.98.38-323.72-52.69,52.83,1.83,221.71-225.74.3v-6.72h-.92l-2.53-1438.38h-.19v-44.45h801.51v-45.21H-18.42V-.07H13.09s44.32,0,44.32,0h672.92v628.45h50.76V4.86h44.46v713.18h50.78V1.68h44.46v806.02h48.39v-99.17l-1.2-1.19,1.2-1.21v-121.48l-1.2-1.19,1.2-1.21v-130.72l-1.2-1.19,1.2-1.21v-129.49l-1.19-1.18,1.19-1.2v-126.69l-.46-.46.46-.46v-124.34l-1.2-1.19,1.2-1.21V1.68h0s44.46,0,44.46,0h0v45.13l45.74,45.3V-.07h44.46v136.2l39.67,39.29V.85h44.46v218.59l40.82,40.43V.38h44.46v303.51l41.73,41.33V.39h44.46v388.85l39.67,39.29V1.31h44.46v471.25l41.49,41.09V.85h44.46v556.82l41.73,41.33V.85h44.46v642.18l39.67,39.29V1.77h44.45v724.57l42.34,41.93V.85h44.46v3282.43h-44.46v-1772.5l-51.4,45.79h3.18v833.9c13.05,54.28,20.01,110.9,20.01,169.13s-7.38,117.38-21.01,172.77h1v550.9h-43.32v-428.24c-14.1,31.38-30.35,61.57-48.61,90.39"/><rect class="cls-3" x="-27.86" y="-8.1" width="4736.54" height="3299.53"/><path class="cls-2" d="m5580.56,3928.51l27.75-27.75-48.88-48.88-27.75,27.75,48.88,48.88Zm-32.07,32.06l-80.94-80.94,32.07-32.07,59.82-59.82,19.28,19.29,61.66,61.66h0s32.07,32.06,32.07,32.06l-91.89,91.88-32.07-32.07Zm-593.01,717.1l519.06-519.34-34.41-34.26-518.96,518.97,34.31,34.64Zm-66.23-66.85l311.52-311.51-312.5-310.17-32.88,33.22,278.85,277.75-35.58,35.73-.54-.54-242.04,242.05,33.17,33.48Zm-65.1-65.7l241.83-241.83-246.07-245.1-35.71,36.08,215.21,206.82-17.3,17.3.23.22-189.4,195,31.21,31.5Zm97.72-589.93l312.65,310.36,35.97-35.97-317-306.34-31.62,31.94Zm63.33-63.98l317.34,306.33,33.37-33.37-277.34-279.47,10.21-10.21h0s253.62-255.33,253.62-255.33l-37.1-37.19-300.02,307.4.87.88-.95.96Zm-31.65-33.86l299.75-307.45-29.56-29.63-303.1,303.85,32.92,33.23Zm400.88-206.08l-231.92,233.49,245.47,247.35,40.02-40.01-176.03-175.26-.07.07-29.89-29.91-1.65-1.64h0s-.51-.52-.51-.52l193.45-194.62-38.86-38.96Zm-90.5,233.41l242.66,241.58,36.93-36.95-173.26-173.05h-.01s-23.31-23.3-23.31-23.3l-8.24-8.24h0s-.51-.52-.51-.52l193.28-194.59-36.9-36.96-230.63,232.01Zm299.57-162.97l-161.29,162.38,173.36,173.16,161.55-161.64-173.62-173.89Zm-593.42,1005.5l-1.16-1.16-267.7,269.8v-71.58l213.96-215.63-160.89-162.39-28.07,28.07,137.41,134.6-162.41,158.03v-70.34l90.24-87.81-90.24-88.39v-92.39l226.18-226.19-215.01-206.64,202.81-204.91-192.88-194.69,206.32-212.41-227.42-221.59v-22.88h48.76l249.9,243.48-206.94,213.05,32.51,32.82,239.83-242.06-218.8-212.94,35.64-34.34,215.08,215.07,32.07,32.07-271.91,274.42,31.34,31.63,303-303.73-227.47-228.93,34.92-28.42,426.11,427.23,37.26-37.49-351.31-350.77,34.1-31.1,655.29,656.28.61.61-831.12,831.6Zm-268.87-1329.59v-67.25l1.66-1.7,160.44,157.17-162.1,162.96v-71.49l90.54-91.01-90.54-88.68Zm0,405.61v-67.26l1.66-1.7,160.74,157.45-162.41,158.03v-70.34l90.24-87.8-90.24-88.39Zm0,557.24v-110.45l55.51,53.93-55.51,56.52Zm175.23-56.52l-175.23,178.41v-71.95l103.74-105.62-103.74-100.8v-70.3l175.23,170.26Zm-175.23-370.71v-83.32l42.67,41.8-42.67,41.52Zm0-404.82v-84.1l42.37,41.51-42.37,42.59Zm42.67,1180.48l-42.67,41.52v-83.31l42.67,41.8Zm1127.29-1445.49l-24.04-24.71h48.24l-24.2,24.71Zm0,137.53l-157.88-162.24h70.34l87.65,90.08,88.25-90.08h67.55l1.54,1.51-157.45,160.73Zm1032.22,3051.16l68.64,70.54h-137.74l69.1-70.54Zm-1524.78-878.84c15.55-8.84,29.9-19.49,42.93-31.58h-.11l.02-336.47c-12.99-12.05-27.3-22.66-42.8-31.48l-.03,399.53Zm-44.44,19.51l.02-438.57c-14.9-4.68-30.44-7.84-46.46-9.38l-.02,457.32c16.02-1.55,31.56-4.7,46.46-9.38m-90.92,9.38l.02-457.32c-18.52,1.79-36.32,5.95-53.31,11.89l.02,433.56c16.98,5.93,34.76,10.09,53.27,11.88m-97.71-33.04l-.03-391.23c-15.54,9.57-29.99,20.73-42.8,33.6v323.01s-.9,0-.9,0c13.06,13.27,27.8,24.81,43.73,34.61m-87.26-96.96l-.02-197.29c-14.31,29.94-22.55,63.29-22.55,98.62s8.26,68.72,22.57,98.66m407.62-210.74v224.17c18.63-33.19,29.38-71.39,29.38-112.09s-10.74-78.89-29.38-112.08m-200.41,376.96c-146.05,0-264.89-118.83-264.89-264.88s118.83-264.89,264.89-264.89,264.9,118.82,264.9,264.89-118.85,264.88-264.9,264.88m-.21,42.4c169.44,0,307.27-137.85,307.27-307.28s-137.83-307.29-307.27-307.29-307.29,137.85-307.29,307.29,137.85,307.28,307.29,307.28m0,37.79c-190.28,0-345.09-154.79-345.09-345.07s154.8-345.08,345.09-345.08,345.09,154.8,345.09,345.08-154.82,345.07-345.09,345.07m11.26,43.96c214.52,0,389.05-174.52,389.05-389.04s-174.53-389.04-389.05-389.04-389.03,174.52-389.03,389.04,174.53,389.04,389.03,389.04m0,38.95c-236,0-428.01-191.99-428.01-427.99s192.01-428,428.01-428,428.01,191.99,428.01,428-192.01,427.99-428.01,427.99m.02,41.2c258.72,0,469.19-210.48,469.19-469.19s-210.47-469.2-469.19-469.2-469.2,210.49-469.2,469.2,210.49,469.19,469.2,469.19m0,39.78c-280.64,0-508.96-228.33-508.96-508.97s228.32-508.96,508.96-508.96,508.95,228.31,508.95,508.96-228.31,508.97-508.95,508.97m2088.52,368.01v-68.61l-255.92,255.93-202.06-203.4-227.8,237.02,71.44-.06,148.79-162.65,161.09,163.38,87.39.09,217.07-221.69Zm-730.34,220.98l-362.4-380.42c-10.72,16.63-21.01,33.02-30.88,49.12l315.99,331.37,77.29-.07Zm-456.26-324.29l-1.26-1.32,4.77-4.55c42.04-70.48,92.53-147.92,150.93-225,79.5-104.9,196.89-210.44,349.4-314.41v-184.68c-146.01,88.07-340.16,223.64-459.4,381-141.28,186.45-235.37,374.78-273.41,456.89-1.29,2.81-11.35,25.21-12.54,27.76-.42.92-.98,1.63-1.51,2.38l39.97,39.97c.2-2.02.58-3.97,1.38-5.73,35.27-77.36,134.4-281.38,285.1-480.27,85.21-112.42,213.95-225.57,382.77-336.74v60.81c-121.77,82.67-253.27,188.36-342.66,306.32-141.64,186.94-235.86,375.76-273.7,457.53-1.79,3.88-12.77,26.43-16.57,34.41l35.53,35.54c20.62-45.48,65.14-138.56,131.19-249.92m-18.26,135.05c-8.91,16.74-17.09,32.52-24.55,47.23l137.82,142.09h69.44s-182.71-189.33-182.71-189.33Zm-262.37-34.6c1.97-4.29,10.75-23.77,11.85-26.09,42.37-89.88,136.08-272.87,273.1-453.7,91.31-120.49,232.46-241.83,419.57-360.64,28.08-17.84,54.82-34.03,79.94-48.81v-177.52c-112.64,57.97-443.22,240.55-616.12,468.72-145.61,192.18-241.09,386.36-276.75,464.16-.77,1.68-5.85,11.63-8.51,16.93l43.61,43.62c.12-.29.16-.58.3-.87,1.2-2.59,11.36-25.11,12.67-27.91,41.11-87.76,135.81-274.58,275.68-459.16,91.29-120.49,232.48-241.82,419.57-360.64,40.45-25.69,78.22-48.1,111.92-67.34v58.38c-148.45,86.83-363.17,230.78-491.39,399.98-146.43,193.24-242.16,388.5-277.34,465.43-1.25,2.76-11.34,25.18-12.46,27.61-.37.81-.88,1.44-1.41,2.05l35.77,35.77Zm-154.83-154.86c2.68-5.29,7.55-14.76,8.26-16.26,41.55-88.53,135.93-274.03,274.8-457.31,91.32-120.49,232.48-241.83,419.57-360.64,108.59-68.96,199.85-115.92,236.66-134.15v-188.19c-110.54,60.1-385.95,215.02-582.3,369.33-63,52.65-120.37,108.48-166.86,166.46-181.62,226.53-273.98,418.46-301.63,480.99-2.25,5.11-5.44,12.47-8.55,19.69l37.91,37.92c4.09-9.08,11.2-24.91,12.46-27.55,12.18-25.8,30.48-62.39,55.7-107.52,47.03-84.15,128.08-215.09,247.19-361.02,115.48-141.48,303.73-285.12,559.51-426.92,37.96-21.05,74.52-40.35,108.97-57.98v50.55c-203.53,105.88-478.15,271.76-633.9,462.58-183.59,224.93-277.62,416.06-305.81,478.33-2.63,5.81-6.62,14.83-10.34,23.31l48.38,48.39Zm111.42-603.81c-.08.4-.17.81-.25,1.21.38-.49.72-.95,1.08-1.44l-.84.23Zm34.4-43.79c3.54-4.51,7.17-9.11,10.93-13.83,11.21-14.08,24.08-28.68,38.47-43.73h-49.4v57.57Zm0-102.19h95.13c18.73-17.17,39.29-34.89,61.64-53.15h-156.77v53.15Zm-179.29,369.13c15.66-25.56,33.18-53.06,52.58-82.12,39.71-76.03,62.28-162.4,62.28-253.96,0-303.49-246.92-550.38-550.39-550.38s-550.39,246.9-550.39,550.37c0,269.47,194.71,494.17,450.8,541.19h2.72v.49c31.47,5.61,63.81,8.71,96.87,8.71,63.82,0,125.15-10.92,182.21-31l8.52-3.08c97.6-36.16,182.19-99.28,244.8-180.22m-809.16-793.85c64.62-52.83,140.52-92.38,223.56-114.18l-54.82-54.51-168.74,168.69Zm208.83-208.77l81.59,81.14c13.88-1.96,40.5-4.29,54.66-5.27l-106.4-105.72-29.86,29.85Zm69.68-69.65l147.56,147.07c34.9,2.29,55.55,6.77,88.57,14.88l-200.01-198.07-36.12,36.11Zm709.94,605.36h213.62c21.27-16.1,43.8-32.57,67.6-49.41h-281.21v49.41Zm0-147.17v53.13h345.96c25.81-17.36,52.89-35.07,81.17-53.14h-427.12Zm-633.8-534.31l288.89,286.34c141.61,72.96,250.1,201.46,296.58,356.51v-137.59l-547.09-543.62-38.37,38.36Zm633.8,489.68h498.4c33.51-20.59,66.13-40.13,96.99-58.24h-595.38v58.24Zm-559.44-564.02l45.89,45.61,465.21,462.23v-64.09l-478.81-476.04-32.3,32.29Zm66.07-66.05l445.03,442.49v-67.77l-413.31-406.44-31.73,31.72Zm73.79-73.77l46,45.67,54.47,54.08,51.69,51.34,54.47,54.08,55.4,55.02,54.47,54.08,54.75,54.37v-70.71l-334.36-334.79-36.88,36.87Zm69.45-69.43l74.67,74.67-.54.54,227.66,227.96v-67.34l-269.38-268.24-32.41,32.4Zm64.49-64.46l237.31,236.31v-65.64l-204.09-203.87-33.21,33.21Zm65.28-65.27l172.02,171.84v-59.76l-142.07-142.02-29.95,29.94Zm62.02-62l37.7,37.69,350-351.63-37.54-37.62-157.05,158.34.08.09-19.62,19.62-.63.63h0s-172.94,172.88-172.94,172.88Zm163.29-227.54l154.83-156.13-36.83-36.91-154.76,156.2,36.76,36.83Zm-68.79-68.93l154.76-156.21-38.02-38.1-154.84,156.13,38.11,38.18Zm-70.14-70.28l154.84-156.13-36.84-36.92-154.76,156.22,36.76,36.83Zm-68.79-68.93l154.76-156.22-34.91-34.98-154.84,156.14,34.99,35.06Zm-67.03-67.16l154.85-156.14-36.84-36.92-154.76,156.23,36.76,36.83Zm-68.79-68.93l154.77-156.22-37.56-37.64-154.85,156.15,37.64,37.71Zm-69.67-69.81l154.85-156.15-36.83-36.91-154.78,156.22,36.76,36.83Zm669.67,359.73l-349.96,351.59,36.79,36.78,350.02-351.46-36.84-36.92Zm68.88,69.02l-323.97,325.3h72.55l287.6-289.04-36.19-36.26Zm68.22,68.36l-255.66,256.94h76.42l217.26-218.84-38.03-38.11Zm103.2,39.41l98.95,99.06c200.48-106.19,459.05-266.06,608.5-449.14,111.99-137.21,190.4-261.51,241.07-351.92h-46.39c-48.68,81.89-120.53,191.09-218.01,310.52-115.5,141.48-303.73,285.12-559.5,426.93-9.04,5.01-17.82,9.72-26.65,14.5l-32.89-33.31c196.72-106.04,440.99-260.55,584.47-436.34,85.49-104.73,151.26-201.84,200.28-282.3h-52.34c-45.09,70.28-102.99,152.88-175.1,241.23-115.49,141.48-303.73,285.13-559.51,426.92-21.6,11.98-42.4,23.07-62.87,33.85m3.71,67.72l-36.85-36.93-185.39,186.74h73.7l148.55-149.81Zm-505.42,193.14v47.17h411.97l-46.39-47.17h-365.58Zm0,90.5v48.28h502.06l-47.48-48.28h-454.58Zm0,92.91v47.09h592.25l-46.31-47.09h-545.94Zm0,91.71v43.85h679.26l-43.11-43.84h-636.14Zm0,88.47v54.53h776.77l-53.63-54.53h-723.14Zm0,150.44h793.48v-51.28h-793.48v51.28Zm793.48,44.63h-793.48v54.52h793.48v-54.52Zm-793.48,99.15v48.51h672.69c33.74-19.15,63.36-35.55,87.09-48.51h-759.79Zm847.95-153.51v1023.55l49.58.54v-973.02l-49.58-51.07Zm94.19,97.05v927.53l52.2.56v-874.32l-52.2-53.78Zm96.83,99.75v828.83l49.02.54v-778.87l-49.02-50.49Zm93.65,96.48v733.37l49.47.54v-682.95l-49.47-50.96Zm94.1,92.5v641.89l55.06.6v-585.77l-55.06-56.72Zm99.68,98.25v544.73l49.33.53v-494.45l-49.33-50.82Zm93.97,92.36v453.4l40.79.44-1.95-413.83-38.84-40Zm-626.89,507.07v-168.5c-87.27,61.52-176.91,134.17-250.76,214.02h64.61c44.14-40.7,93.61-81.35,148.52-121.81v63.54c-24.37,18.66-48.39,38.22-72.04,58.27h792.42v-43.79l-682.76-1.73Zm-223.68,89.97l39.07,41.72h867.37v-41.72h-906.44Zm80.7,86.18l43.7,46.67,782.03-3.51v-43.16h-825.74Zm85.15,90.94l40.21,42.94,41.83-43.31-82.04.37Zm-233.29-175.39c-6.21,7.63-12.3,15.3-18.17,23.04-3.34,4.41-6.59,8.82-9.88,13.23l300.79,315.35,167.64-177.16-54.66.25-112.8,116.77-272.92-291.48Zm713.94,240.88l-64.22-67.37-59.88.27,126.7,123.76,121.58-124.88-58.54.26-65.65,67.95Zm259.93-68.82l-65.07.29-191.35,196.54-199.42-194.78-8.05.04.05.05-237.14,250.61-331.09-347.11c-11.07,15.58-21.79,31.09-32.18,46.49l356.24,373.95,249.44-259.54,202.76,204.12,254.35-254.36,1.46,1.46v-17.76Zm-1510.9,383.36l-420.23-419.61-417.93,419.39,52.78-.09,365.24-366.54,367.38,366.94,52.77-.1Zm-422.79-70.55l-69.81,70.06,139.88-.25-70.07-69.81Zm128.8,69.71l55.72-.1-183.88-183.24-183.22,183.89h2.82s51.23-.09,51.23-.09l128.44-128.9,128.9,128.45Zm178.1,1.05l-304.14-303.93-302.25,303.32,54.4.06,246.87-247.76,249.14,248.26,55.98.06Zm852.77-2890.88l-.1-53.89-69.35-69.34v.02l-31.44-31.44,100.45-100.43-.1-53.71-154.13,154.13,154.67,154.67Zm-.34-192.35l-37.66,37.68,37.81,37.8-.15-75.48Zm-96.92,754.75l-52.53,53.2h105.62l-53.09-53.2Zm221.76,53.2h694.06v753.04l35.88,35.8v-833.2h-653.72c-24.74,14.8-49.96,29.59-76.21,44.36m729.94-87.69v-40.73h-521.08c-20.09,13.58-41.02,27.16-62.34,40.73h583.42Zm0-84.06v-47.39h-396.11c-20.09,15.8-41.21,31.59-63.01,47.39h459.12Zm0-90.73v-47.87h-289.54c-16.95,15.94-34.89,31.9-53.62,47.87h343.16Zm0-91.2v-43.5h-205.83c-12.46,14.48-25.81,28.99-39.79,43.5h245.61Zm-80.5,1062.18v-663.89h-731.21c-.96.5-1.94,1.04-2.9,1.54l-1.58-1.54h-37.14l-.38.38-.38-.38h-141.07l36.69,40.44h839.37v584.96l38.58,38.5Zm-83.21-83.03v-495.79h-750.1l37.94,37.95h674.2v419.96l37.96,37.88Zm-82.58-82.4v-330.81h-584.96l37.33,37.32h510.31v256.26l37.31,37.23Zm-81.94-81.76v-167.11h-421.06l35.89,36.5h350.16v95.67l35.01,34.94Zm-79.33-79.16v-5.36h-5.37l5.37,5.36Zm407.56-822.66v-48.46h-132.52c-12.06,15.89-24.75,32.1-37.76,48.46h170.28Zm0-91.79v-36.79h-73.96c-8.46,12.05-17.22,24.32-26.3,36.79h100.25Zm0-80.12v-68.19c-13.48,21.52-28.05,44.18-44.18,68.19h44.18Zm-80.42,2854.94l-32.82,33.33,32.82-.2v-33.14Zm0-59.89v-64.11l-195.9,200.07-129.67-.14-138.61-140.58-127.93,139.85-237.07.22-321.32-336.95c-10.24,17.47-19.94,34.45-29.06,50.8l276.12,286.14h-209.47s-140.17-144.51-140.17-144.51c-12.7,26.46-21.61,46.32-26.61,57.75l85.43,85.45-1469.58.92,32.35-32.69h-32.35v-42.01h73.92l32.53-32.87h-106.45v-42.01h148.03l33.55-33.91h-181.58v-42.01h223.15l32.72-33.07h-255.88v-42.01h297.45l33.56-33.91h-331.01v-42.01h372.58l33.04-33.39h-405.62v-42.01h447.19l33.56-33.91h-480.75v-42.01h522.32l.59-.6c17.3,1.44,34.76,2.35,52.42,2.35,2.84,0,5.65-.18,8.47-.21l-480.33,484,37.71-.07,483.86-485.86c24.73-1.96,49.08-5.22,72.93-9.97l-493.67,495.72,47.39-.09,480.92-482.61,483.46,482.6,47.4-.09-511.7-508.86c16.02-4.71,31.75-10.03,47.21-15.96l527.59,524.72,37.73-.08-535.88-534.82-1.31-1.4c14.75-6.5,29.27-13.47,43.4-21.05l17.34,17.34c3.35-7.62,7.77-17.69,8.29-18.86,8.74-19.11,21.1-44.89,37.46-76.28-32.17,24.89-66.74,46.83-103.69,64.75l-38.61,17.06c-67.63,27-141.36,41.85-218.51,41.85-33.02,0-65.38-2.85-96.95-8.08h-475.85v-42.01h335.01c-23.51-10.37-46.28-22.11-68.06-35.33h-266.94v-42.01h206.76c-14.12-11.17-27.71-22.95-40.75-35.33h-166.01v-42.01h125.89c-9.9-11.43-19.44-23.17-28.46-35.33h-97.43v-42.01h69.02c-7.09-11.51-13.73-23.32-20.03-35.33h-48.98v-42.01h28.9c-11.72-27.39-21.39-55.86-28.91-85.17v-293.03c21.64-84.47,61.43-161.74,115.07-227.31l-115.07,115.03v-64.15l1160.41-1160.41-628.62-635.98,73.08-12.18-14.62,10.56,50.17,52.42,68.33-68.9h63.87l-100.17,100.99,38.11,38.18,137.89-139.17h97.18l710.52,711.4c202.12-106.09,468.46-268.91,620.99-455.76,62.21-76.22,113.84-148.3,156.35-213.01h-55.13c-37.23,54.27-80.96,113.65-131.73,175.86-115.48,141.48-303.73,285.12-559.51,426.92-10.44,5.78-20.54,11.22-30.7,16.7l-32.89-33.3c197.41-106.1,444.06-261.55,588.52-438.55,41.94-51.39,79.12-100.94,111.96-147.63h-53.06c-25.11,34.16-52.37,69.66-82.21,106.23-113.8,139.42-298.4,280.93-548.52,420.72l.25.25c-8.52,4.69-16.67,9.04-24.6,13.21-4.46,2.41-8.98,4.89-13.46,7.31l-.22-.26c-.99.5-2.07,1.08-3.05,1.57l-397.63-396.3,194.86-195.35,30.28,29.47-162.04,165.77,342.44,341.27c11.46-6.35,23.06-12.88,34.73-19.52l-290.55-290.54v.02s-31.44-31.44-31.44-31.44l195.03-195.03,33.64,31.1-165.79,163.92,298.95,298.94c10.97-6.45,22-13.05,33.06-19.73l-247.78-247.78-.02.02-31.44-31.44,195.05-195.03,33.27,34.34-165.43,160.67,255.29,255.28c11.11-6.95,22.21-14.01,33.32-21.18l-202.67-202.67-.03.02-31.43-31.44,195.03-195.03,37.72,29.47-169.87,165.54,209.17,209.17c11.27-7.55,22.48-15.19,33.66-22.94l-154.79-154.8-.02.02-31.44-31.44,195.03-195.03h66.54l.59,326.08c13.48-10.26,26.74-20.68,39.82-31.22l-.53-294.86h44.64l.45,257.6c12.96-11.25,25.65-22.62,37.99-34.14l-.4-223.47h44.65l.31,179.69c13.52-14.02,26.32-28.22,38.62-42.55l-.23-137.14h44.64l.14,82.6c22.19-28.24,42.96-55.84,62.32-82.6h626.02v3282.43h-44.46v-3239.8h-40.23c-11.37,23.01-26.09,51.43-44.58,84.51-47.03,84.15-128.08,215.09-247.2,361-115.47,141.49-303.71,285.13-559.49,426.94-6.73,3.73-13.28,7.25-19.88,10.84l-32.92-33.32c195.54-105.92,435.84-258.84,577.73-432.66,142.25-174.3,230.47-327.89,276.19-417.31h-48.97c-3.38,6.2-6.87,12.55-10.55,19.13-47.02,84.15-128.08,215.08-247.2,361.02-115.47,141.48-303.72,285.12-559.5,426.92-17.2,9.54-33.87,18.49-50.35,27.25l88.24,88.35h10.84c197.34-105.22,447.34-261.04,595.04-439.31v-1.19h1.02c1.01-1.22,2.12-2.41,3.12-3.64,135.31-165.77,221.82-312.99,269.33-403.98v93.09c-.11.19-.24.4-.35.59v1587.64l1.32,1.32-1.32,1.32v60.46l-452.02-451.11v-.23l-68.31-68.16h-65.2l585.53,579.78v60.93l-648.77-640.71h-62.86l711.62,710.29v1230.56h-44.46v-1211.56l-1085.84-1087.98,102.09-103.42-35.48-35.55-128.85,129.96,1067.65,1085.53v-2.75l44.46,44.1v1181.66h-38.59l-139.58.83,133.72-135.83Zm938.64-2136.85c33.7,12.73,70.04,20.02,108.14,20.02s74.44-7.29,108.14-20.02h-216.28Zm294.3-43.33c15.52-11.86,29.83-25.14,42.83-39.68h-457.98c13,14.54,27.31,27.82,42.83,39.68h372.32Zm75.19-83.01c9.38-15.16,17.54-31.12,24.2-47.87h-571.11c6.67,16.76,14.82,32.71,24.2,47.87h522.71Zm37.75-91.2c3.6-15.4,6-31.21,7.18-47.39h-612.57c1.18,16.18,3.58,32,7.18,47.39h598.21Zm7.26-90.73c-1.1-16.34-3.4-32.33-6.96-47.87h-598.8c-3.57,15.54-5.86,31.53-6.96,47.87h612.73Zm-20.39-91.2c-5.96-15.14-13.09-29.64-21.27-43.5h-529.42c-8.18,13.86-15.31,28.36-21.27,43.5h571.95Zm-51.97-86.83c-10.32-12.12-21.58-23.38-33.64-33.77h-400.74c-12.06,10.4-23.32,21.65-33.64,33.77h468.01Zm-99.43-77.1c-40.71-19.94-86.27-31.44-134.57-31.44s-93.86,11.51-134.57,31.44h269.14Zm80.52,561.3v2.09h-2.8c-59.41,44-132.86,70.08-212.3,70.08-197.12,0-357.49-160.37-357.49-357.48s160.37-357.47,357.49-357.47,357.48,160.36,357.48,357.47c0,116.43-55.97,220-142.39,285.32m-889.55-285.32c0,276.48,167.24,514.56,405.84,618.56l35.1-31.27c-233.3-93.08-398.65-321.17-398.65-587.29,0-348.57,283.59-632.16,632.17-632.16s632.16,283.58,632.16,632.16c0,317.08-234.75,580.05-539.53,625l-54.27,48.35h.02l-55.89,49.79s0,0-.01,0l-382.79,341.04,82.15.17,330.89-294.79v-1.02s1.14,0,1.14,0l123.29-109.84,1.41,1.59.24-.21c305.53-64.17,535.66-335.74,535.66-660.08,0-371.9-302.57-674.46-674.47-674.46s-674.46,302.56-674.46,674.46m936.63-673.97c51.43,20.08,100.08,45.76,145.04,76.5l-70.2-76.5h-74.85Zm506.55,729.54v-259.04l-138.52-150.97c59.19,104.83,93.15,225.71,93.15,354.44,0,18.76-.91,37.29-2.32,55.69l47.69-.12Zm50.41,50.28h-.17s0,.13,0,.13l-103.48.34c-2.28,15.42-5.18,30.64-8.42,45.73l153.3-.21v-255.43l-41.24-44.95v254.38Zm-233.61,318.12c-20.66,28.46-43.3,55.37-67.79,80.5l67.54.21.25-80.71Zm-179.68-1097.95l505.17,559.22-.23.35v316.59l-216.28.29c-14.53,49.74-34.41,97.19-58.72,141.9h.4s-.65,210.88-.65,210.88l-170.05-.54v-1.53c-18.77,15.83-38.41,30.67-58.75,44.55l273.64,1.94.41-346.78,276.44-.98v-403.7l-480.17-522.19h-71.22Zm-223.99,1373.99c-10.84,2.82-21.81,5.32-32.84,7.67l-68.72,61.22,101.9.55-.34-69.44Zm51,120.13l-208.81-1.13-47.27,42.11,297.91.82-.45-192.75c-13.81,5.68-27.81,10.99-42.04,15.83l.65,135.12Zm131-195.32c-12.85,7.51-25.91,14.71-39.25,21.44l.61,266.24-404.85-1.12-53.02,47.24,496.51.97v-334.77Zm177.08,150.73l41.27.24,29.71-29.78-99.84-.6-.14,100.83,28.93-29.01.07-41.68Zm-79.2-80.87l200.17,1.21,45.49-45.61-293.12-2.08v295.95l48.61-48.74h-1.43s.28-200.73.28-200.73Zm129.53,134.93v.73s-.73,0-.73,0l-176.26,176.89v2.86h-2.84s-71.46,71.71-71.46,71.71l626.05,623.84-.09-53.27-539.36-539.35h-.01s-31.44-31.41-31.44-31.41l568.78-568.78-.1-57.08-372.55,373.88Zm242.21-305.72l35.85-35.94.08-51.2,50.83.15,34.32-34.41-122.09.16,1,121.23Zm130.56,51.68l-506.01,506.01,507.8,507.82-.09-52.9-423.47-423.48h-.02s-31.43-31.41-31.43-31.41l453.31-453.32-.09-52.71Zm.21,115.47l-390.54,390.54,391.93,391.93-.09-54.6-305.9-305.9h-.02s-31.43-31.41-31.43-31.41l336.15-336.16-.09-54.4Zm.21,117.16l-273.38,273.39,274.35,274.35-.1-56.7-186.22-186.22h-.02s-31.43-31.41-31.43-31.41l216.89-216.91-.1-56.5Zm.21,119.25l-154.12,154.13,154.67,154.68-.09-53.9-69.35-69.35h-.01s-31.43-31.41-31.43-31.41l100.44-100.44-.09-53.71Zm.21,116.46l-37.67,37.67,37.81,37.8-.13-75.48Zm-60.25,663.53l-39.57-39.43-1030.55-2.07,41.91,41.5h1028.21Zm-983.32,44.46l55.68,55.14v-55.14h-55.68Zm-131.78-130.5l1030.92,2.17-46.64-46.48-1031.11-2.07,46.84,46.38Zm-91.82-90.92l1031.5,2.17-53.76-53.57-1031.73-2.07,53.99,53.46Zm-98.97-98.01l1032.11,2.17-46.64-46.48-1032.3-2.07,46.84,46.38Zm-91.82-90.92l1032.69,2.17-51.42-51.24-1032.89-2.06,51.63,51.13Zm-96.61-95.67l1033.28,2.17-46.64-46.47-1033.47-2.07,46.83,46.38Zm-91.82-90.92l1033.85,2.18-47.22-47.06-1034.09-2.12,47.46,47Zm-70.04-6.79v61.31l728.54,721.45v-61.31l-728.54-721.45Zm0,123.87v70.55l728.54,721.46v-70.55l-728.54-721.46Zm0,133.11v69.31l728.54,721.47v-69.32l-728.54-721.45Zm0,131.87v63.52l728.54,724.28v-66.34l-728.54-721.46Zm0,126.21v65.57l728.54,721.46v-62.75l-728.54-724.27Zm1044.71-597.62l55.48-55.62-533.87-1.04v-3.46s-66.23,59.01-66.23,59.01l544.61,1.12Zm-760.12-1.57l387.35-345.1h0l50.67-45.15h0l47.26-42.1c-.05,0-.11,0-.16,0l60.48-53.89c284.55-38.53,504.64-282.87,504.64-577.82,0-321.61-261.65-583.26-583.26-583.26s-583.27,261.65-583.27,583.26c0,254.28,163.66,470.84,391.09,550.46l31.81-28.34c-223.18-68.68-385.89-276.7-385.89-522.12,0-301.2,245.04-546.26,546.26-546.26s546.26,245.05,546.26,546.26-226.19,526.76-511.01,545.01l-136.75,121.83s0,0,.02,0l-46.35,41.29s0,0,0,0l-399.32,355.75,80.18.17Zm870.59-1064.04c0-222.55-181.06-403.6-403.6-403.6s-403.61,181.05-403.61,403.6,181.06,403.6,403.61,403.6,403.6-181.05,403.6-403.6m-1017.43,1063.74l626.19-557.88.21.24,10.43-9.29c263.6-12.06,474.34-230.28,474.34-496.8s-223.11-497.36-497.35-497.36-497.36,223.12-497.36,497.36c0,234,162.49,430.63,380.52,483.34l41.75-37.2c-213.88-35.89-377.41-222.23-377.41-446.15,0-249.51,202.99-452.49,452.5-452.49s452.5,202.98,452.5,452.49-202.99,452.49-452.5,452.49c-5.02,0-10-.22-14.98-.38l-88.7,79.02-4.8,4.28-128.84,114.79-26.23,23.38h0l-437.72,389.98,87.46.18Zm92.39-563.08c-16.4-17.07-31.96-34.94-46.65-53.55v438.26l46.65-41.56v-343.15Zm134.53,223.3l78.55-69.98c-27.11-12.86-53.4-27.18-78.55-43.16v113.14Zm-43.33-142.92c-16.53-12.27-32.46-25.27-47.87-38.86v263.03l47.87-42.65v-181.51Zm-229.79,386.24l47.87-42.65v-539.79c-17.92-28.39-33.98-58.07-47.87-88.93v671.37Zm774.29,784.64v45.21h880.32l-45.37-45.21h-834.95Zm190.46,179.32v45.21h549.4v449.11h34.6v-494.33h-584Zm628.46,584h31.39v-584h-31.39v584Zm-123.51-180.19v-314.14h-414.55v45.53h378.17v268.6h36.38Zm-80.83-92.84v-131.3h-239.96v48.39h198.72v82.92h41.24Zm-153.46,0h67.76v-38.46h-67.76v38.46Zm-44.46-38.46h-42.04v131.3h239.96v-48.39h-197.91v-82.92Zm-42.04,175.77h-44.46v-268.61h-49.3v314.66h414.55v-46.06h-320.79Zm399.85,135.72v-45.21h-515.64v-.08h-22.42v-449.03h-45.94v494.33h584Zm-1500.14-2901.05v-338.56h43.33v277.39c14.68-18.62,30.24-36.49,46.65-53.57v-223.81h43.33v182.22c15.42-13.61,31.33-26.65,47.87-38.93v-143.29h43.33v113.67c14.38-9.14,29.01-17.92,44.05-26.05v-87.62h43.33v66.22c13.85-6.32,27.9-12.26,42.19-17.72v-48.5h43.33v33.36c67.66-20.99,139.53-32.33,214-32.33,14.26,0,28.39.53,42.45,1.34v-2.38h602.29s3.92,0,3.92,0l308.57,335.19v-64.82l-249.25-270.37h68.91l.36.4h62.89l-.36-.4h68.77l.36.4h2.02v2.2l46.29,50.28v-52.88h50.41v182.09l-121.03-131.29h-62.96l183.99,199.87v139.28h0v74.3l-381.52-413.84h-80.07l461.59,502.74v74.29h0s0,399.1,0,399.1l-276.5.98-.38,323.72,52.7-52.83-1.83-221.71,225.74-.3v6.72h.92l2.53,1438.38h.19v44.45h-801.51v45.21h799.52v672.9h-31.52s-44.32,0-44.32,0h-672.92v-628.45h-50.76v623.52h-44.46v-713.18h-50.78v716.36h-44.46v-806.02h-48.39v99.17l1.19,1.19-1.19,1.21v121.48l1.19,1.19-1.19,1.21v130.72l1.19,1.19-1.19,1.21v129.49l1.19,1.18-1.19,1.2v126.69l.46.46-.46.46v124.34l1.19,1.19-1.19,1.21v61.26h0s-44.46,0-44.46,0h0v-45.13l-45.74-45.3v92.18h-44.46v-136.2l-39.67-39.29v174.56h-44.46v-218.59l-40.82-40.43v259.48h-44.46v-303.51l-41.73-41.33v344.83h-44.46v-388.85l-39.67-39.29v427.22h-44.46v-471.25l-41.49-41.09v512.8h-44.46v-556.82l-41.73-41.33v598.15h-44.46v-642.18l-39.67-39.29v680.54h-44.45v-724.57l-42.34-41.93v767.41h-44.46v-3282.43h44.46v1772.5l51.4-45.79h-3.18v-833.9c-13.05-54.28-20.01-110.9-20.01-169.13s7.38-117.38,21.01-172.77h-1v-550.9h43.32v428.24c14.1-31.38,30.35-61.57,48.61-90.4"/><rect class="cls-3" x="4693.79" y="3276.55" width="4736.53" height="3299.53"/><path class="cls-2" d="m5580.56,2593.47l27.75,27.75-48.88,48.88-27.75-27.75,48.88-48.88Zm-32.07-32.06l-80.94,80.94,32.07,32.07,59.82,59.82,19.28-19.29,61.66-61.66h0s32.07-32.06,32.07-32.06l-91.89-91.88-32.07,32.07Zm-593.01-717.1l519.06,519.34-34.41,34.26-518.96-518.97,34.31-34.64Zm-66.23,66.85l311.52,311.51-312.5,310.17-32.88-33.22,278.85-277.75-35.58-35.73-.54.54-242.04-242.05,33.17-33.48Zm-65.1,65.7l241.83,241.83-246.07,245.1-35.71-36.08,215.21-206.82-17.3-17.3.23-.23-189.4-195,31.21-31.5Zm97.72,589.93l312.65-310.36,35.97,35.96-317,306.34-31.62-31.94Zm63.33,63.98l317.34-306.33,33.37,33.37-277.34,279.47,10.21,10.21h0s253.62,255.33,253.62,255.33l-37.1,37.19-300.02-307.4.87-.88-.95-.96Zm-31.65,33.86l299.75,307.45-29.56,29.63-303.1-303.85,32.92-33.23Zm400.88,206.08l-231.92-233.49,245.47-247.35,40.02,40.01-176.03,175.26-.07-.07-29.89,29.91-1.65,1.64h0s-.51.52-.51.52l193.45,194.62-38.86,38.96Zm-90.5-233.41l242.66-241.58,36.93,36.95-173.26,173.05h-.01s-23.31,23.3-23.31,23.3l-8.24,8.24h0s-.51.52-.51.52l193.28,194.59-36.9,36.96-230.63-232.01Zm299.57,162.97l-161.29-162.38,173.36-173.16,161.55,161.64-173.62,173.89Zm-593.42-1005.5l-1.16,1.16-267.7-269.79v71.58l213.96,215.63-160.89,162.39-28.07-28.07,137.41-134.6-162.41-158.03v70.34l90.24,87.81-90.24,88.38v92.39l226.18,226.2-215.01,206.63,202.81,204.91-192.88,194.69,206.32,212.41-227.42,221.59v22.88h48.76l249.9-243.48-206.94-213.05,32.51-32.82,239.83,242.06-247.28,247.28h64.12l215.08-215.07,32.07-32.07-271.91-274.42,31.34-31.63,303,303.73-220.16,218.13,35.32,31.34,418.4-419.35,37.26,37.49-349.69,360.27,32.47,21.59,655.29-656.28.61-.61-831.12-831.6Zm-268.87,1329.59v67.25l1.66,1.7,160.44-157.17-162.1-162.96v71.49l90.54,91.01-90.54,88.68Zm0-405.61v67.26l1.66,1.7,160.74-157.45-162.41-158.03v70.34l90.24,87.8-90.24,88.39Zm0-557.24v110.45l55.51-53.93-55.51-56.51Zm175.23,56.51l-175.23-178.41v71.96l103.74,105.62-103.74,100.8v70.29l175.23-170.26Zm-175.23,370.71v83.31l42.67-41.8-42.67-41.52Zm0,404.82v84.1l42.37-41.51-42.37-42.59Zm42.67-1180.48l-42.67-41.52v83.31l42.67-41.8Zm1127.29,1445.49l-24.04,24.71h48.24l-24.2-24.71Zm0-137.53l-132.27,131.71,44.73,30.52,87.65-90.08,88.25,90.08h67.55c.85-.83.87-2.2.03-3.05l-155.94-159.19ZM6903.41,69.88L6972.05-.65h-137.74l69.1,70.54Zm-1524.78,878.84c15.55,8.84,29.9,19.49,42.93,31.58h-.11l.02,336.47c-12.99,12.05-27.3,22.66-42.8,31.48l-.03-399.53Zm-44.44-19.51l.02,438.56c-14.9,4.68-30.44,7.84-46.46,9.38l-.02-457.32c16.02,1.55,31.56,4.7,46.46,9.38m-90.92-9.38l.02,457.32c-18.52-1.79-36.32-5.95-53.31-11.89l.02-433.56c16.98-5.93,34.76-10.09,53.27-11.88m-97.71,33.04l-.03,391.23c-15.54-9.57-29.99-20.73-42.8-33.6v-323.01s-.9,0-.9,0c13.06-13.27,27.8-24.81,43.73-34.61m-87.26,96.96l-.02,197.29c-14.31-29.94-22.55-63.29-22.55-98.62s8.26-68.72,22.57-98.66m407.62,210.74v-224.17c18.63,33.19,29.38,71.39,29.38,112.09s-10.74,78.89-29.38,112.08m-200.41-376.96c-146.05,0-264.89,118.83-264.89,264.88s118.83,264.89,264.89,264.89,264.9-118.82,264.9-264.89-118.85-264.88-264.9-264.88m-.21-42.4c169.44,0,307.27,137.85,307.27,307.28s-137.83,307.29-307.27,307.29-307.29-137.85-307.29-307.29,137.85-307.28,307.29-307.28m0-37.79c-190.28,0-345.09,154.79-345.09,345.07s154.8,345.08,345.09,345.08,345.09-154.79,345.09-345.08-154.82-345.07-345.09-345.07m11.26-43.96c214.52,0,389.05,174.52,389.05,389.04s-174.53,389.04-389.05,389.04-389.03-174.52-389.03-389.04,174.53-389.04,389.03-389.04m0-38.95c-236,0-428.01,191.99-428.01,427.99s192.01,428,428.01,428,428.01-191.99,428.01-428-192.01-427.99-428.01-427.99m.02-41.2c258.72,0,469.19,210.48,469.19,469.19s-210.47,469.2-469.19,469.2-469.2-210.49-469.2-469.2,210.49-469.19,469.2-469.19m0-39.78c-280.64,0-508.96,228.33-508.96,508.97s228.32,508.96,508.96,508.96,508.95-228.31,508.95-508.96-228.31-508.97-508.95-508.97m2088.52-368.01v68.62l-255.92-255.93-202.06,203.4-227.8-237.02,71.44.06,148.79,162.65,161.09-163.38,87.39-.09,217.07,221.69Zm-730.34-220.98l-362.4,380.42c-10.72-16.63-21.01-33.02-30.88-49.12l315.99-331.37,77.29.07Zm-456.26,324.29l-1.26,1.32,4.77,4.55c42.04,70.48,92.53,147.92,150.93,225,79.5,104.9,196.89,210.44,349.4,314.41v184.68c-146.01-88.07-340.16-223.64-459.4-381-141.28-186.45-235.37-374.78-273.41-456.89-1.29-2.81-11.35-25.21-12.54-27.76-.42-.92-.98-1.63-1.51-2.38l39.97-39.98c.2,2.02.58,3.98,1.38,5.73,35.27,77.36,134.4,281.38,285.1,480.27,85.21,112.42,213.95,225.57,382.77,336.74v-60.81c-121.77-82.67-253.27-188.36-342.66-306.32-141.64-186.94-235.86-375.76-273.7-457.53-1.79-3.88-12.77-26.43-16.57-34.41l35.53-35.54c20.62,45.48,65.14,138.56,131.19,249.92m-18.26-135.05c-8.91-16.74-17.09-32.52-24.55-47.23l137.82-142.09h69.44s-182.71,189.33-182.71,189.33Zm-262.37,34.6c1.97,4.29,10.75,23.77,11.85,26.09,42.37,89.88,136.08,272.87,273.1,453.7,91.31,120.49,232.46,241.83,419.57,360.64,28.08,17.84,54.82,34.03,79.94,48.81v177.52c-112.64-57.97-443.22-240.55-616.12-468.73-145.61-192.18-241.09-386.36-276.75-464.16-.77-1.68-5.85-11.63-8.51-16.93l43.61-43.62c.12.29.16.58.3.87,1.2,2.59,11.36,25.11,12.67,27.91,41.11,87.76,135.81,274.58,275.68,459.16,91.29,120.49,232.48,241.83,419.57,360.64,40.45,25.69,78.22,48.1,111.92,67.34v-58.38c-148.45-86.83-363.17-230.78-491.39-399.98-146.43-193.24-242.16-388.5-277.34-465.43-1.25-2.76-11.34-25.18-12.46-27.61-.37-.81-.88-1.44-1.41-2.05l35.77-35.77Zm-154.83,154.86c2.68,5.29,7.55,14.76,8.26,16.26,41.55,88.53,135.93,274.03,274.8,457.31,91.32,120.49,232.48,241.83,419.57,360.64,108.59,68.96,199.85,115.92,236.66,134.15v188.19c-110.54-60.1-385.95-215.02-582.3-369.33-63-52.65-120.37-108.48-166.86-166.46-181.62-226.53-273.98-418.46-301.63-480.98-2.25-5.11-5.44-12.47-8.55-19.69l37.91-37.92c4.09,9.08,11.2,24.91,12.46,27.55,12.18,25.8,30.48,62.39,55.7,107.52,47.03,84.15,128.08,215.09,247.19,361.02,115.48,141.48,303.73,285.12,559.51,426.92,37.96,21.05,74.52,40.35,108.97,57.98v-50.55c-203.53-105.88-478.15-271.76-633.9-462.58-183.59-224.93-277.62-416.06-305.81-478.33-2.63-5.81-6.62-14.83-10.34-23.31l48.38-48.38Zm111.42,603.81c-.08-.4-.17-.81-.25-1.21.38.49.72.95,1.08,1.44l-.84-.23Zm34.4,43.79c3.54,4.5,7.17,9.11,10.93,13.83,11.21,14.08,24.08,28.68,38.47,43.73h-49.4v-57.57Zm0,102.19h95.13c18.73,17.17,39.29,34.89,61.64,53.15h-156.77v-53.15Zm-179.29-369.13c15.66,25.56,33.18,53.06,52.58,82.12,39.71,76.04,62.28,162.4,62.28,253.96,0,303.49-246.92,550.38-550.39,550.38s-550.39-246.9-550.39-550.37c0-269.47,194.71-494.17,450.8-541.19h2.72v-.49c31.47-5.61,63.81-8.71,96.87-8.71,63.82,0,125.15,10.92,182.21,31l8.52,3.08c97.6,36.16,182.19,99.28,244.8,180.22m-809.16,793.85c64.62,52.83,140.52,92.38,223.56,114.18l-54.82,54.51-168.74-168.69Zm208.83,208.77l81.59-81.14c13.88,1.96,40.5,4.29,54.66,5.27l-106.4,105.72-29.86-29.85Zm69.68,69.65l147.56-147.07c34.9-2.29,55.55-6.77,88.57-14.88l-200.01,198.07-36.12-36.11Zm709.94-605.36h213.62c21.27,16.1,43.8,32.57,67.6,49.41h-281.21v-49.41Zm0,147.17v-53.13h345.96c25.81,17.36,52.89,35.07,81.17,53.13h-427.12Zm-633.8,534.31l288.89-286.34c141.61-72.96,250.1-201.46,296.58-356.51v137.59l-547.09,543.62-38.37-38.36Zm633.8-489.68h498.4c33.51,20.6,66.13,40.13,96.99,58.24h-595.38v-58.24Zm-559.44,564.02l45.89-45.61,465.21-462.23v64.09l-478.81,476.04-32.3-32.29Zm66.07,66.05l445.03-442.49v67.77l-413.31,406.44-31.73-31.72Zm73.79,73.77l46-45.67,54.47-54.08,51.69-51.34,54.47-54.07,55.4-55.02,54.47-54.08,54.75-54.37v70.71l-334.36,334.79-36.88-36.87Zm69.45,69.43l74.67-74.67-.54-.54,227.66-227.96v67.34l-269.38,268.24-32.41-32.4Zm64.49,64.46l237.31-236.31v65.64l-204.09,203.87-33.21-33.21Zm65.28,65.27l172.02-171.84v59.76l-142.07,142.02-29.95-29.94Zm62.02,62l37.7-37.69,350,351.63-37.54,37.62-157.05-158.34.08-.09-19.62-19.62-.63-.63h0s-172.94-172.88-172.94-172.88Zm163.29,227.54l154.83,156.13-36.83,36.91-154.76-156.2,36.76-36.83Zm-68.79,68.93l154.76,156.21-38.02,38.1-154.84-156.13,38.11-38.18Zm-70.14,70.28l154.84,156.13-36.84,36.92-154.76-156.22,36.76-36.83Zm-68.79,68.93l154.76,156.22-34.91,34.98-154.84-156.14,34.99-35.06Zm-67.03,67.16l154.85,156.14-36.84,36.92-154.76-156.23,36.76-36.83Zm-68.79,68.93l154.77,156.22-37.56,37.64-154.85-156.15,37.64-37.71Zm-69.67,69.81l154.85,156.15-47.57,22.25-144.05-141.56,36.76-36.83Zm669.67-359.73l-349.96-351.59,36.79-36.78,350.02,351.46-36.84,36.92Zm68.88-69.02l-323.97-325.3h72.55l287.6,289.04-36.19,36.26Zm68.22-68.36l-255.66-256.94h76.42l217.26,218.84-38.03,38.11Zm103.2-39.41l98.95-99.06c200.48,106.19,459.05,266.06,608.5,449.14,111.99,137.21,190.4,261.51,241.07,351.92h-46.39c-48.68-81.89-120.53-191.09-218.01-310.52-115.5-141.48-303.73-285.12-559.5-426.93-9.04-5.01-17.82-9.72-26.65-14.5l-32.89,33.31c196.72,106.04,440.99,260.55,584.47,436.34,85.49,104.73,151.26,201.84,200.28,282.3h-52.34c-45.09-70.28-102.99-152.88-175.1-241.23-115.49-141.48-303.73-285.13-559.51-426.92-21.6-11.98-42.4-23.07-62.87-33.85m3.71-67.72l-36.85,36.93-185.39-186.74h73.7l148.55,149.81Zm-505.42-193.14v-47.17h411.97l-46.39,47.17h-365.58Zm0-90.5v-48.28h502.06l-47.48,48.28h-454.58Zm0-92.91v-47.09h592.25l-46.31,47.09h-545.94Zm0-91.71v-43.85h679.26l-43.11,43.84h-636.14Zm0-88.47v-54.53h776.77l-53.63,54.53h-723.14Zm0-150.44h793.48v51.28h-793.48v-51.28Zm793.48-44.63h-793.48v-54.52h793.48v54.52Zm-793.48-99.15v-48.51h672.69c33.74,19.15,63.36,35.55,87.09,48.51h-759.79Zm847.95,153.51v-1023.55l49.58-.54v973.02l-49.58,51.07Zm94.19-97.05v-927.53l52.2-.56v874.32l-52.2,53.78Zm96.83-99.75v-828.83l49.02-.54v778.88l-49.02,50.49Zm93.65-96.48v-733.37l49.47-.54v682.95l-49.47,50.96Zm94.1-92.5v-641.89l55.06-.6v585.77l-55.06,56.72Zm99.68-98.25v-544.73l49.33-.53v494.45l-49.33,50.81Zm93.97-92.36v-453.4l40.79-.44-1.95,413.83-38.84,40Zm-626.89-507.07v168.5c-87.27-61.52-176.91-134.17-250.76-214.02h64.61c44.14,40.7,93.61,81.35,148.52,121.81v-63.54c-24.37-18.66-48.39-38.22-72.04-58.27h792.42v43.79l-682.76,1.73Zm-223.68-89.97l39.07-41.72h867.37v41.72h-906.44Zm80.7-86.18l43.7-46.67,782.03,3.51v43.16h-825.74Zm85.15-90.94l40.21-42.94,41.83,43.31-82.04-.37Zm-233.29,175.39c-6.21-7.63-12.3-15.3-18.17-23.04-3.34-4.41-6.59-8.82-9.88-13.23l300.79-315.35,167.64,177.16-54.66-.25-112.8-116.77-272.92,291.48Zm713.94-240.88l-64.22,67.37-59.88-.27,126.7-123.76,121.58,124.88-58.54-.26-65.65-67.95Zm259.93,68.82l-65.07-.29-191.35-196.54-199.42,194.78-8.05-.04.05-.05-237.14-250.61-331.09,347.11c-11.07-15.58-21.79-31.1-32.18-46.49l356.24-373.95,249.44,259.54,202.76-204.12,254.35,254.36,1.46-1.46v17.76ZM5854.19,42.91l-420.23,419.61-417.93-419.39,52.78.09,365.24,366.54,367.38-366.94,52.77.1Zm-422.79,70.55l-69.81-70.06,139.88.25-70.07,69.81Zm128.8-69.71l55.72.1-183.88,183.24-183.22-183.88h2.82s51.23.09,51.23.09l128.44,128.9,128.9-128.44Zm178.1-1.05l-304.14,303.93-302.25-303.32,54.4-.06,246.87,247.76,249.14-248.26,55.98-.06Zm852.77,2890.88l-.1,53.89-69.35,69.34v-.02l-31.44,31.44,100.45,100.43-.1,53.71-154.13-154.13,154.67-154.67Zm-.34,192.35l-37.66-37.68,37.81-37.8-.15,75.48Zm-96.92-754.75l-52.53-53.2h105.62l-53.09,53.2Zm221.76-53.2h694.06v-753.04l35.88-35.8v833.2h-653.72c-24.74-14.8-49.96-29.59-76.21-44.36m729.94,87.69v40.73h-521.08c-20.09-13.58-41.02-27.16-62.34-40.73h583.42Zm0,84.06v47.39h-396.11c-20.09-15.8-41.21-31.59-63.01-47.39h459.12Zm0,90.73v47.87h-289.54c-16.95-15.94-34.89-31.9-53.62-47.87h343.16Zm0,91.2v43.5h-205.83c-12.46-14.48-25.81-28.99-39.79-43.5h245.61Zm-80.5-1062.18v663.89h-731.21c-.96-.5-1.94-1.04-2.9-1.54l-1.58,1.54h-37.14l-.38-.38-.38.38h-141.07l36.69-40.44h839.37v-584.96l38.58-38.5Zm-83.21,83.03v495.79h-750.1l37.94-37.95h674.2v-419.96l37.96-37.88Zm-82.58,82.4v330.81h-584.96l37.33-37.32h510.31v-256.26l37.31-37.23Zm-81.94,81.76v167.11h-421.06l35.89-36.5h350.16v-95.67l35.01-34.94Zm-79.33,79.16v5.36h-5.37l5.37-5.36Zm407.56,822.66v48.46h-132.52c-12.06-15.89-24.75-32.1-37.76-48.46h170.28Zm0,91.79v36.79h-73.96c-8.46-12.05-17.22-24.32-26.3-36.79h100.25Zm0,80.12v68.19c-13.48-21.52-28.05-44.18-44.18-68.19h44.18Zm-80.42-2854.94l-32.82-33.33,32.82.2v33.14Zm0,59.89v64.11L7169.18-.61l-129.67.14-138.61,140.58L6772.97.25l-237.07-.22-321.32,336.95c-10.24-17.47-19.94-34.45-29.06-50.8L6461.64.05h-209.47s-140.17,144.51-140.17,144.51c-12.7-26.46-21.61-46.32-26.61-57.75l85.43-85.45-1469.58-.92,32.35,32.69h-32.35v42.01h73.92l32.53,32.87h-106.45v42.01h148.03l33.55,33.91h-181.58v42.01h223.15l32.72,33.07h-255.88v42.01h297.45l33.56,33.91h-331.01v42.01h372.58l33.04,33.39h-405.62v42.01h447.19l33.56,33.91h-480.75v42.01h522.32l.59.6c17.3-1.44,34.76-2.35,52.42-2.35,2.84,0,5.65.18,8.47.21l-480.33-484,37.71.07,483.86,485.86c24.73,1.96,49.08,5.22,72.93,9.97l-493.67-495.72,47.39.09,480.92,482.61,483.46-482.6,47.4.09-511.7,508.86c16.02,4.71,31.75,10.03,47.21,15.96L6027.8,43.22l37.73.08-535.88,534.82-1.31,1.4c14.75,6.5,29.27,13.47,43.4,21.05l17.34-17.34c3.35,7.62,7.77,17.69,8.29,18.86,8.74,19.11,21.1,44.89,37.46,76.28-32.17-24.89-66.74-46.83-103.69-64.75l-38.61-17.06c-67.63-27-141.36-41.85-218.51-41.85-33.02,0-65.38,2.85-96.95,8.08h-475.85v42.01h335.01c-23.51,10.37-46.28,22.11-68.06,35.33h-266.94v42.01h206.76c-14.12,11.17-27.71,22.95-40.75,35.33h-166.01v42.01h125.89c-9.9,11.43-19.44,23.17-28.46,35.33h-97.43v42.01h69.02c-7.09,11.51-13.73,23.31-20.03,35.33h-48.98v42.01h28.9c-11.72,27.39-21.39,55.86-28.91,85.17v293.03c21.64,84.47,61.43,161.74,115.07,227.31l-115.07-115.03v64.15l1160.41,1160.41-628.62,627.62,89.32,42.23-32.48-33.29,51.79-51.37,68.33,68.9,28.48-33.77-64.78-67.22,38.11-38.18,137.89,139.17h97.18l710.52-711.4c202.12,106.09,468.46,268.91,620.99,455.76,62.21,76.22,113.84,148.3,156.35,213.01h-55.13c-37.23-54.27-80.96-113.65-131.73-175.86-115.48-141.48-303.73-285.12-559.51-426.92-10.44-5.78-20.54-11.22-30.7-16.7l-32.89,33.3c197.41,106.1,444.06,261.56,588.52,438.55,41.94,51.39,79.12,100.94,111.96,147.63h-53.06c-25.11-34.16-52.37-69.66-82.21-106.23-113.8-139.42-298.4-280.93-548.52-420.72l.25-.25c-8.52-4.69-16.67-9.04-24.6-13.21-4.46-2.41-8.98-4.89-13.46-7.31l-.22.26c-.99-.5-2.07-1.08-3.05-1.57l-397.63,396.3,194.86,195.35h62.81l-194.57-195.25,342.44-341.27c11.46,6.35,23.06,12.88,34.73,19.52l-290.55,290.54v-.02s-31.44,31.44-31.44,31.44l195.03,195.03h62.87l-195.02-195.02,298.95-298.94c10.97,6.45,22,13.05,33.06,19.73l-247.78,247.78-.02-.02-31.44,31.44,195.05,195.03h62.87l-195.03-195.02,255.29-255.28c11.11,6.95,22.21,14.01,33.32,21.18l-202.67,202.67-.03-.02-31.43,31.44,195.03,195.03h62.87l-195.02-195.02,209.17-209.17c11.27,7.55,22.48,15.19,33.66,22.94l-154.79,154.8-.02-.02-31.44,31.44,195.03,195.03h66.54l.59-326.08c13.48,10.26,26.74,20.68,39.82,31.22l-.53,294.86h44.64l.45-257.6c12.96,11.25,25.65,22.62,37.99,34.14l-.4,223.47h44.65l.31-179.69c13.52,14.02,26.32,28.22,38.62,42.55l-.23,137.14h44.64l.14-82.6c22.19,28.24,42.96,55.84,62.32,82.6h626.02V.85h-44.46v3239.8h-40.23c-11.37-23.01-26.09-51.43-44.58-84.51-47.03-84.15-128.08-215.09-247.2-361-115.47-141.49-303.71-285.13-559.49-426.94-6.73-3.73-13.28-7.25-19.88-10.84l-32.92,33.32c195.54,105.92,435.84,258.84,577.73,432.66,142.25,174.3,230.47,327.89,276.19,417.31h-48.97c-3.38-6.2-6.87-12.55-10.55-19.13-47.02-84.15-128.08-215.08-247.2-361.02-115.47-141.48-303.72-285.12-559.5-426.92-17.2-9.54-33.87-18.49-50.35-27.25l88.24-88.35h10.84c197.34,105.22,447.34,261.04,595.04,439.31v1.19h1.02c1.01,1.22,2.12,2.41,3.12,3.64,135.31,165.77,221.82,312.99,269.33,403.98v-93.09c-.11-.19-.24-.4-.35-.59v-1587.64l1.32-1.32-1.32-1.32v-60.46l-452.02,451.11v.23l-68.31,68.16h-65.2l585.53-579.78v-60.93l-648.77,640.71h-62.86l711.62-710.29V.34h-44.46v1211.56l-1085.84,1087.98,102.09,103.42-35.48,35.55-128.85-129.96,1067.65-1085.53v2.75l44.46-44.1V.34h-38.59l-139.58-.83,133.72,135.83Zm938.64,2136.85c33.7-12.73,70.04-20.02,108.14-20.02s74.44,7.29,108.14,20.02h-216.28Zm294.3,43.33c15.52,11.86,29.83,25.13,42.83,39.68h-457.98c13-14.55,27.31-27.82,42.83-39.68h372.32Zm75.19,83.01c9.38,15.16,17.54,31.12,24.2,47.87h-571.11c6.67-16.75,14.82-32.71,24.2-47.87h522.71Zm37.75,91.2c3.6,15.4,6,31.21,7.18,47.39h-612.57c1.18-16.18,3.58-32,7.18-47.39h598.21Zm7.26,90.73c-1.1,16.34-3.4,32.32-6.96,47.87h-598.8c-3.57-15.55-5.86-31.53-6.96-47.87h612.73Zm-20.39,91.2c-5.96,15.14-13.09,29.64-21.27,43.5h-529.42c-8.18-13.86-15.31-28.36-21.27-43.5h571.95Zm-51.97,86.83c-10.32,12.12-21.58,23.38-33.64,33.77h-400.74c-12.06-10.4-23.32-21.65-33.64-33.77h468.01Zm-99.43,77.1c-40.71,19.94-86.27,31.44-134.57,31.44s-93.86-11.51-134.57-31.44h269.14Zm80.52-561.3v-2.09h-2.8c-59.41-44-132.86-70.08-212.3-70.08-197.12,0-357.49,160.37-357.49,357.49s160.37,357.47,357.49,357.47,357.48-160.36,357.48-357.47c0-116.43-55.97-220-142.39-285.32m-889.55,285.32c0-276.48,167.24-514.56,405.84-618.56l35.1,31.27c-233.3,93.08-398.65,321.17-398.65,587.29,0,348.57,283.59,632.16,632.17,632.16s632.16-283.58,632.16-632.16c0-317.08-234.75-580.05-539.53-625.01l-54.27-48.35h.02l-55.89-49.79s0,0-.01,0l-382.79-341.04,82.15-.17,330.89,294.79v1.02s1.14,0,1.14,0l123.29,109.84,1.41-1.59.24.21c305.53,64.17,535.66,335.74,535.66,660.08,0,371.9-302.57,674.46-674.47,674.46s-674.46-302.56-674.46-674.46m936.63,673.97c51.43-20.08,100.08-45.76,145.04-76.5l-70.2,76.5h-74.85Zm506.55-729.54v259.04l-138.52,150.97c59.19-104.83,93.15-225.71,93.15-354.44,0-18.76-.91-37.29-2.32-55.69l47.69.12Zm50.41-50.28h-.17s0-.13,0-.13l-103.48-.34c-2.28-15.42-5.18-30.64-8.42-45.73l153.3.21v255.43l-41.24,44.95v-254.38Zm-233.61-318.12c-20.66-28.46-43.3-55.37-67.79-80.5l67.54-.21.25,80.71Zm-179.68,1097.95l505.17-559.22-.23-.35v-316.59l-216.28-.29c-14.53-49.74-34.41-97.19-58.72-141.9h.4s-.65-210.88-.65-210.88l-170.05.54v1.53c-18.77-15.83-38.41-30.67-58.75-44.55l273.64-1.94.41,346.78,276.44.98v403.71l-480.17,522.19h-71.22Zm-223.99-1373.99c-10.84-2.82-21.81-5.32-32.84-7.67l-68.72-61.22,101.9-.55-.34,69.44Zm51-120.13l-208.81,1.13-47.27-42.11,297.91-.82-.45,192.75c-13.81-5.68-27.81-10.99-42.04-15.83l.65-135.12Zm131,195.32c-12.85-7.51-25.91-14.71-39.25-21.44l.61-266.24-404.85,1.12-53.02-47.24,496.51-.97v334.77Zm177.08-150.73l41.27-.24,29.71,29.78-99.84.6-.14-100.83,28.93,29.01.07,41.68Zm-79.2,80.87l200.17-1.21,45.49,45.61-293.12,2.08v-295.95l48.61,48.74h-1.43s.28,200.73.28,200.73Zm129.53-134.93v-.73s-.73,0-.73,0l-176.26-176.89v-2.86h-2.84s-71.46-71.71-71.46-71.71l626.05-623.84-.09,53.27-539.36,539.35h-.01s-31.44,31.41-31.44,31.41l568.78,568.78-.1,57.08-372.55-373.88Zm242.21,305.72l35.85,35.94.08,51.19,50.83-.15,34.32,34.41-122.09-.16,1-121.23Zm130.56-51.68l-506.01-506.01,507.8-507.82-.09,52.9-423.47,423.48h-.02s-31.43,31.41-31.43,31.41l453.31,453.32-.09,52.71Zm.21-115.47l-390.54-390.54,391.93-391.94-.09,54.6-305.9,305.9h-.02s-31.43,31.41-31.43,31.41l336.15,336.16-.09,54.4Zm.21-117.15l-273.38-273.39,274.35-274.35-.1,56.7-186.22,186.22h-.02s-31.43,31.41-31.43,31.41l216.89,216.91-.1,56.5Zm.21-119.25l-154.12-154.13,154.67-154.68-.09,53.9-69.35,69.35h-.01s-31.43,31.41-31.43,31.41l100.44,100.44-.09,53.71Zm.21-116.46l-37.67-37.67,37.81-37.8-.13,75.48Zm-60.25-663.53l-39.57,39.43-1030.55,2.07,41.91-41.5h1028.21Zm-983.32-44.46l55.68-55.14v55.14h-55.68Zm-131.78,130.5l1030.92-2.17-46.64,46.48-1031.11,2.07,46.84-46.38Zm-91.82,90.92l1031.5-2.17-53.76,53.56-1031.73,2.07,53.99-53.46Zm-98.97,98.01l1032.11-2.17-46.64,46.48-1032.3,2.07,46.84-46.38Zm-91.82,90.92l1032.69-2.17-51.42,51.24-1032.89,2.06,51.63-51.13Zm-96.61,95.67l1033.28-2.17-46.64,46.48-1033.47,2.07,46.83-46.38Zm-91.82,90.92l1033.85-2.18-47.22,47.06-1034.09,2.12,47.46-47Zm-70.04,6.79v-61.31l728.54-721.45v61.31l-728.54,721.45Zm0-123.87v-70.55l728.54-721.46v70.55l-728.54,721.46Zm0-133.11v-69.31l728.54-721.47v69.32l-728.54,721.45Zm0-131.87v-63.52l728.54-724.28v66.34l-728.54,721.46Zm0-126.21v-65.57l728.54-721.46v62.75l-728.54,724.27Zm1044.71,597.62l55.48,55.62-533.87,1.04v3.46s-66.23-59.01-66.23-59.01l544.61-1.12Zm-760.12,1.56l387.35,345.1h0l50.67,45.15h0l47.26,42.1c-.05,0-.11,0-.16,0l60.48,53.89c284.55,38.53,504.64,282.87,504.64,577.82,0,321.61-261.65,583.26-583.26,583.26s-583.27-261.65-583.27-583.26c0-254.28,163.66-470.84,391.09-550.46l31.81,28.34c-223.18,68.68-385.89,276.71-385.89,522.12,0,301.2,245.04,546.26,546.26,546.26s546.26-245.06,546.26-546.26-226.19-526.76-511.01-545.01l-136.75-121.83s0,0,.02,0l-46.35-41.29s0,0,0,0l-399.32-355.75,80.18-.17Zm870.59,1064.04c0,222.55-181.06,403.6-403.6,403.6s-403.61-181.05-403.61-403.6,181.06-403.6,403.61-403.6,403.6,181.05,403.6,403.6m-1017.43-1063.74l626.19,557.88.21-.24,10.43,9.29c263.6,12.06,474.34,230.28,474.34,496.8s-223.11,497.36-497.35,497.36-497.36-223.12-497.36-497.36c0-234,162.49-430.63,380.52-483.34l41.75,37.2c-213.88,35.89-377.41,222.23-377.41,446.15,0,249.51,202.99,452.49,452.5,452.49s452.5-202.98,452.5-452.49-202.99-452.49-452.5-452.49c-5.02,0-10,.22-14.98.38l-88.7-79.02-4.8-4.28-128.84-114.79-26.23-23.38h0l-437.72-389.98,87.46-.18Zm92.39,563.08c-16.4,17.07-31.96,34.95-46.65,53.55v-438.26l46.65,41.56v343.15Zm134.53-223.29l78.55,69.98c-27.11,12.86-53.4,27.18-78.55,43.16v-113.14Zm-43.33,142.92c-16.53,12.27-32.46,25.27-47.87,38.86v-263.03l47.87,42.65v181.51Zm-229.79-386.24l47.87,42.65v539.79c-17.92,28.39-33.98,58.07-47.87,88.93v-671.37Zm774.29-784.64v-45.21h880.32l-45.37,45.21h-834.95Zm190.46-179.32v-45.21h549.4V134.05h34.6v494.33h-584Zm628.46-584h31.39v584h-31.39V44.38Zm-123.51,180.19v314.14h-414.55v-45.53h378.17V224.57h36.38Zm-80.83,92.84v131.3h-239.96v-48.39h198.72v-82.92h41.24Zm-153.46,0h67.76v38.46h-67.76v-38.46Zm-44.46,38.46h-42.04v-131.3h239.96v48.39h-197.91v82.92Zm-42.04-175.77h-44.46v268.61h-49.3V134.05h414.55v46.06h-320.79Zm399.85-135.72v45.21h-515.64v.08h-22.42v449.03h-45.94V44.38h584Zm-1500.14,2901.05v338.56h43.33v-277.39c14.68,18.62,30.24,36.49,46.65,53.57v223.81h43.33v-182.22c15.42,13.61,31.33,26.65,47.87,38.93v143.29h43.33v-113.67c14.38,9.14,29.01,17.92,44.05,26.05v87.62h43.33v-66.22c13.85,6.32,27.9,12.26,42.19,17.72v48.5h43.33v-33.36c67.66,20.99,139.53,32.33,214,32.33,14.26,0,28.39-.53,42.45-1.34v2.38h602.29s3.92,0,3.92,0l308.57-335.19v64.82l-218.84,235.07,38.5,35.3.36-.4h62.89l-.36.4h68.77l.36-.4h2.02v-2.2l46.29-50.28v52.88h50.41v-182.09l-121.03,131.29h-62.96l183.99-199.87v-139.28h0v-74.3l-381.52,413.84h-80.07l461.59-502.74v-74.29h0s0-399.1,0-399.1l-276.5-.98-.38-323.72,52.7,52.83-1.83,221.71,225.74.3v-6.72h.92l2.53-1438.38h.19v-44.45h-801.51v-45.21h799.52V-.07h-31.52s-44.32,0-44.32,0h-672.92v628.45h-50.76V4.86h-44.46v713.18h-50.78V1.68h-44.46v806.02h-48.39v-99.17l1.19-1.19-1.19-1.21v-121.48l1.19-1.19-1.19-1.21v-130.72l1.19-1.19-1.19-1.21v-129.49l1.19-1.18-1.19-1.2v-126.69l.46-.46-.46-.46v-124.34l1.19-1.19-1.19-1.21V1.68h0s-44.46,0-44.46,0h0v45.13l-45.74,45.3V-.07h-44.46v136.2l-39.67,39.29V.85h-44.46v218.59l-40.82,40.43V.38h-44.46v303.51l-41.73,41.33V.39h-44.46v388.85l-39.67,39.29V1.31h-44.46v471.25l-41.49,41.09V.85h-44.46v556.82l-41.73,41.33V.85h-44.46v642.18l-39.67,39.29V1.77h-44.45v724.57l-42.34,41.93V.85h-44.46v3282.43h44.46v-1772.5l51.4,45.79h-3.18v833.9c-13.05,54.28-20.01,110.9-20.01,169.13s7.38,117.38,21.01,172.77h-1v550.9h43.32v-428.24c14.1,31.38,30.35,61.57,48.61,90.39"/><rect class="cls-3" x="4693.79" y="-8.1" width="4736.53" height="3299.53"/><path class="cls-2" d="m3821.9,3928.51l-27.75-27.75,48.88-48.88,27.75,27.75-48.88,48.88Zm32.07,32.06l80.94-80.94-32.07-32.07-59.82-59.82-19.28,19.29-61.66,61.66h0s-32.07,32.06-32.07,32.06l91.89,91.88,32.07-32.07Zm593.01,717.1l-519.06-519.34,34.41-34.26,518.96,518.97-34.31,34.64Zm66.23-66.85l-311.51-311.51,312.5-310.17,32.88,33.22-278.85,277.75,35.58,35.73.54-.54,242.04,242.05-33.17,33.48Zm65.1-65.7l-241.83-241.83,246.07-245.1,35.71,36.08-215.21,206.82,17.3,17.3-.23.22,189.4,195-31.21,31.5Zm-97.72-589.93l-312.65,310.36-35.97-35.97,317-306.34,31.62,31.94Zm-63.33-63.98l-317.34,306.33-33.37-33.37,277.34-279.47-10.21-10.21h0s-253.61-255.33-253.61-255.33l37.1-37.19,300.02,307.4-.87.88.95.96Zm31.65-33.86l-299.75-307.45,29.56-29.63,303.1,303.85-32.92,33.23Zm-400.88-206.08l231.92,233.49-245.47,247.35-40.02-40.01,176.03-175.26.07.07,29.89-29.91,1.65-1.64h0s.51-.52.51-.52l-193.45-194.62,38.86-38.96Zm90.5,233.41l-242.66,241.58-36.93-36.95,173.26-173.05h.01s23.31-23.3,23.31-23.3l8.24-8.24h0s.51-.52.51-.52l-193.28-194.59,36.9-36.96,230.63,232.01Zm-299.57-162.97l161.29,162.38-173.36,173.16-161.55-161.64,173.62-173.89Zm593.42,1005.5l1.16-1.16,267.7,269.8v-71.58l-213.96-215.63,160.89-162.39,28.07,28.07-137.41,134.6,162.41,158.03v-70.34l-90.23-87.81,90.23-88.39v-92.39l-226.18-226.19,215.01-206.64-202.81-204.91,192.88-194.69-206.32-212.41,227.42-221.59v-22.88h-48.76l-249.9,243.48,206.94,213.05-32.51,32.82-239.83-242.06,223.22-221.06-40.06-26.22-215.08,215.07-32.07,32.07,271.91,274.42-31.34,31.63-303-303.73,219.44-221.35-34.6-28.12-418.4,419.35-37.26-37.49,354.92-356.99-37.71-24.87-655.29,656.28-.61.61,831.12,831.6Zm268.86-1329.59v-67.25l-1.66-1.7-160.44,157.17,162.1,162.96v-71.49l-90.54-91.01,90.54-88.68Zm0,405.61v-67.26l-1.66-1.7-160.74,157.45,162.41,158.03v-70.34l-90.23-87.8,90.23-88.39Zm0,557.24v-110.45l-55.51,53.93,55.51,56.52Zm-175.23-56.52l175.23,178.41v-71.95l-103.74-105.62,103.74-100.8v-70.3l-175.23,170.26Zm175.23-370.71v-83.32l-42.67,41.8,42.67,41.52Zm0-404.82v-84.1l-42.37,41.51,42.37,42.59Zm-42.67,1180.48l42.67,41.52v-83.31l-42.67,41.8Zm-1127.29-1295.96l144.81-141.79-47.64-20.84-97.29,78.47-88.25-90.08h-67.55c-.86.84-.9,2.21-.09,3.1l156,171.14Zm-1032.22,3039.16l-68.64,70.54h137.74l-69.1-70.54Zm1524.78-878.84c-15.55-8.84-29.9-19.49-42.93-31.58h.11l-.02-336.47c12.99-12.05,27.3-22.66,42.8-31.48l.03,399.53Zm44.44,19.51l-.02-438.57c14.9-4.68,30.44-7.84,46.46-9.38l.02,457.32c-16.02-1.55-31.56-4.7-46.46-9.38m90.92,9.38l-.02-457.32c18.52,1.79,36.32,5.95,53.3,11.89l-.02,433.56c-16.98,5.93-34.76,10.09-53.27,11.88m97.71-33.04l.03-391.23c15.54,9.57,29.99,20.73,42.8,33.6v323.01s.9,0,.9,0c-13.06,13.27-27.8,24.81-43.73,34.61m87.26-96.96l.02-197.29c14.31,29.94,22.55,63.29,22.55,98.62s-8.26,68.72-22.57,98.66m-407.61-210.74v224.17c-18.63-33.19-29.38-71.39-29.38-112.09s10.74-78.89,29.38-112.08m200.41,376.96c146.05,0,264.89-118.83,264.89-264.88s-118.83-264.89-264.89-264.89-264.9,118.82-264.9,264.89,118.85,264.88,264.9,264.88m.21,42.4c-169.44,0-307.27-137.85-307.27-307.28s137.83-307.29,307.27-307.29,307.29,137.85,307.29,307.29-137.85,307.28-307.29,307.28m0,37.79c190.28,0,345.09-154.79,345.09-345.07s-154.8-345.08-345.09-345.08-345.09,154.8-345.09,345.08,154.82,345.07,345.09,345.07m-11.26,43.96c-214.52,0-389.05-174.52-389.05-389.04s174.53-389.04,389.05-389.04,389.03,174.52,389.03,389.04-174.53,389.04-389.03,389.04m0,38.95c236,0,428.01-191.99,428.01-427.99s-192.01-428-428.01-428-428.01,191.99-428.01,428,192.01,427.99,428.01,427.99m-.02,41.2c-258.72,0-469.19-210.48-469.19-469.19s210.47-469.2,469.19-469.2,469.2,210.49,469.2,469.2-210.49,469.19-469.2,469.19m0,39.78c280.64,0,508.96-228.33,508.96-508.97s-228.32-508.96-508.96-508.96-508.95,228.31-508.95,508.96,228.31,508.97,508.95,508.97m-2088.52,368.01v-68.61l255.92,255.93,202.05-203.4,227.8,237.02-71.44-.06-148.79-162.65-161.09,163.38-87.39.09-217.07-221.69Zm730.34,220.98l362.41-380.42c10.72,16.63,21.01,33.02,30.88,49.12l-315.99,331.37-77.29-.07Zm456.26-324.29l1.26-1.32-4.77-4.55c-42.04-70.48-92.53-147.92-150.93-225-79.5-104.9-196.89-210.44-349.4-314.41v-184.68c146.01,88.07,340.16,223.64,459.4,381,141.28,186.45,235.37,374.78,273.41,456.89,1.29,2.81,11.35,25.21,12.54,27.76.42.92.98,1.63,1.51,2.38l-39.97,39.97c-.21-2.02-.58-3.97-1.39-5.73-35.27-77.36-134.4-281.38-285.1-480.27-85.21-112.42-213.95-225.57-382.77-336.74v60.81c121.77,82.67,253.27,188.36,342.66,306.32,141.64,186.94,235.86,375.76,273.7,457.53,1.79,3.88,12.77,26.43,16.57,34.41l-35.53,35.54c-20.62-45.48-65.14-138.56-131.19-249.92m18.26,135.05c8.91,16.74,17.09,32.52,24.55,47.23l-137.82,142.09h-69.44s182.71-189.33,182.71-189.33Zm262.37-34.6c-1.98-4.29-10.75-23.77-11.85-26.09-42.37-89.88-136.08-272.87-273.1-453.7-91.31-120.49-232.46-241.83-419.57-360.64-28.08-17.84-54.82-34.03-79.94-48.81v-177.52c112.64,57.97,443.22,240.55,616.12,468.72,145.61,192.18,241.09,386.36,276.75,464.16.77,1.68,5.85,11.63,8.51,16.93l-43.61,43.62c-.12-.29-.16-.58-.3-.87-1.2-2.59-11.36-25.11-12.67-27.91-41.11-87.76-135.81-274.58-275.68-459.16-91.29-120.49-232.48-241.82-419.57-360.64-40.45-25.69-78.22-48.1-111.92-67.34v58.38c148.45,86.83,363.17,230.78,491.39,399.98,146.43,193.24,242.16,388.5,277.34,465.43,1.25,2.76,11.34,25.18,12.46,27.61.36.81.88,1.44,1.41,2.05l-35.77,35.77Zm154.83-154.86c-2.68-5.29-7.55-14.76-8.26-16.26-41.55-88.53-135.93-274.03-274.8-457.31-91.33-120.49-232.48-241.83-419.58-360.64-108.59-68.96-199.85-115.92-236.66-134.15v-188.19c110.54,60.1,385.95,215.02,582.3,369.33,63,52.65,120.37,108.48,166.86,166.46,181.62,226.53,273.98,418.46,301.63,480.99,2.25,5.11,5.44,12.47,8.55,19.69l-37.91,37.92c-4.09-9.08-11.2-24.91-12.46-27.55-12.18-25.8-30.48-62.39-55.7-107.52-47.03-84.15-128.08-215.09-247.19-361.02-115.48-141.48-303.73-285.12-559.51-426.92-37.96-21.05-74.52-40.35-108.97-57.98v50.55c203.53,105.88,478.15,271.76,633.9,462.58,183.59,224.93,277.62,416.06,305.81,478.33,2.63,5.81,6.62,14.83,10.34,23.31l-48.38,48.39Zm-111.42-603.81c.08.4.17.81.25,1.21-.38-.49-.72-.95-1.08-1.44l.84.23Zm-34.4-43.79c-3.54-4.51-7.17-9.11-10.93-13.83-11.21-14.08-24.08-28.68-38.47-43.73h49.4v57.57Zm0-102.19h-95.13c-18.72-17.17-39.29-34.89-61.64-53.15h156.77v53.15Zm179.29,369.13c-15.66-25.56-33.18-53.06-52.58-82.12-39.71-76.03-62.28-162.4-62.28-253.96,0-303.49,246.92-550.38,550.39-550.38s550.38,246.9,550.38,550.37c0,269.47-194.71,494.17-450.79,541.19h-2.72v.49c-31.47,5.61-63.81,8.71-96.87,8.71-63.82,0-125.15-10.92-182.21-31l-8.52-3.08c-97.6-36.16-182.19-99.28-244.8-180.22m809.16-793.85c-64.62-52.83-140.52-92.38-223.56-114.18l54.82-54.51,168.74,168.69Zm-208.83-208.77l-81.59,81.14c-13.88-1.96-40.5-4.29-54.66-5.27l106.4-105.72,29.86,29.85Zm-69.68-69.65l-147.56,147.07c-34.91,2.29-55.55,6.77-88.57,14.88l200.01-198.07,36.12,36.11Zm-709.95,605.36h-213.62c-21.27-16.1-43.8-32.57-67.6-49.41h281.22v49.41Zm0-147.17v53.13h-345.96c-25.81-17.36-52.89-35.07-81.17-53.14h427.12Zm633.8-534.31l-288.89,286.34c-141.61,72.96-250.1,201.46-296.58,356.51v-137.59l547.09-543.62,38.37,38.36Zm-633.8,489.68h-498.4c-33.51-20.59-66.13-40.13-96.99-58.24h595.38v58.24Zm559.44-564.02l-45.89,45.61-465.21,462.23v-64.09l478.81-476.04,32.3,32.29Zm-66.07-66.05l-445.03,442.49v-67.77l413.31-406.44,31.73,31.72Zm-73.79-73.77l-46,45.67-54.47,54.08-51.69,51.34-54.47,54.08-55.4,55.02-54.47,54.08-54.75,54.37v-70.71l334.36-334.79,36.89,36.87Zm-69.45-69.43l-74.67,74.67.54.54-227.66,227.96v-67.34l269.38-268.24,32.41,32.4Zm-64.49-64.46l-237.31,236.31v-65.64l204.09-203.87,33.21,33.21Zm-65.28-65.27l-172.02,171.84v-59.76l142.07-142.02,29.95,29.94Zm-62.02-62l-37.7,37.69-350-351.63,37.54-37.62,157.05,158.34-.08.09,19.62,19.62.63.63h0s172.94,172.88,172.94,172.88Zm-163.29-227.54l-154.83-156.13,36.83-36.91,154.76,156.2-36.76,36.83Zm68.79-68.93l-154.76-156.21,38.03-38.1,154.84,156.13-38.11,38.18Zm70.14-70.28l-154.84-156.13,36.84-36.92,154.76,156.22-36.76,36.83Zm68.79-68.93l-154.76-156.22,34.91-34.98,154.84,156.14-34.99,35.06Zm67.03-67.16l-154.85-156.14,36.84-36.92,154.76,156.23-36.76,36.83Zm68.79-68.93l-154.77-156.22,37.56-37.64,154.85,156.15-37.64,37.71Zm69.67-69.81l-154.85-156.15,36.83-36.91,154.78,156.22-36.76,36.83Zm-669.67,359.73l349.96,351.59-36.79,36.78-350.01-351.46,36.84-36.92Zm-68.88,69.02l323.97,325.3h-72.55l-287.6-289.04,36.19-36.26Zm-68.23,68.36l255.66,256.94h-76.42l-217.26-218.84,38.02-38.11Zm-103.2,39.41l-98.95,99.06c-200.48-106.19-459.05-266.06-608.5-449.14-111.99-137.21-190.4-261.51-241.07-351.92h46.39c48.68,81.89,120.53,191.09,218.01,310.52,115.5,141.48,303.73,285.12,559.5,426.93,9.04,5.01,17.82,9.72,26.65,14.5l32.89-33.31c-196.72-106.04-440.99-260.55-584.47-436.34-85.49-104.73-151.26-201.84-200.28-282.3h52.34c45.09,70.28,102.99,152.88,175.1,241.23,115.49,141.48,303.73,285.13,559.51,426.92,21.6,11.98,42.4,23.07,62.87,33.85m-3.71,67.72l36.85-36.93,185.39,186.74h-73.7l-148.55-149.81Zm505.42,193.14v47.17h-411.97l46.39-47.17h365.58Zm0,90.5v48.28h-502.05l47.48-48.28h454.58Zm0,92.91v47.09h-592.25l46.31-47.09h545.94Zm0,91.71v43.85h-679.26l43.11-43.84h636.14Zm0,88.47v54.53h-776.77l53.63-54.53h723.14Zm0,150.44h-793.48v-51.28h793.48v51.28Zm-793.48,44.63h793.48v54.52h-793.48v-54.52Zm793.48,99.15v48.51h-672.69c-33.74-19.15-63.36-35.55-87.09-48.51h759.79Zm-847.95-153.51v1023.55l-49.58.54v-973.02l49.58-51.07Zm-94.2,97.05v927.53l-52.2.56v-874.32l52.2-53.78Zm-96.83,99.75v828.83l-49.02.54v-778.87l49.02-50.49Zm-93.65,96.48v733.37l-49.47.54v-682.95l49.47-50.96Zm-94.1,92.5v641.89l-55.06.6v-585.77l55.06-56.72Zm-99.68,98.25v544.73l-49.33.53v-494.45l49.33-50.82Zm-93.97,92.36v453.4l-40.79.44,1.95-413.83,38.84-40Zm626.89,507.07v-168.5c87.27,61.52,176.91,134.17,250.76,214.02h-64.61c-44.14-40.7-93.61-81.35-148.52-121.81v63.54c24.36,18.66,48.39,38.22,72.03,58.27h-792.42v-43.79l682.76-1.73Zm223.68,89.97l-39.07,41.72h-867.37v-41.72h906.44Zm-80.7,86.18l-43.7,46.67-782.04-3.51v-43.16h825.74Zm-85.16,90.94l-40.21,42.94-41.83-43.31,82.03.37Zm233.29-175.39c6.21,7.63,12.3,15.3,18.17,23.04,3.34,4.41,6.59,8.82,9.88,13.23l-300.79,315.35-167.64-177.16,54.66.25,112.8,116.77,272.92-291.48Zm-713.94,240.88l64.21-67.37,59.87.27-126.7,123.76-121.58-124.88,58.54.26,65.65,67.95Zm-259.93-68.82l65.07.29,191.35,196.54,199.42-194.78,8.05.04-.05.05,237.14,250.61,331.09-347.11c11.07,15.58,21.8,31.09,32.18,46.49l-356.24,373.95-249.45-259.54-202.76,204.12-254.35-254.36-1.45,1.46v-17.76Zm1510.89,383.36l420.23-419.61,417.93,419.39-52.78-.09-365.24-366.54-367.38,366.94-52.78-.1Zm422.79-70.55l69.81,70.06-139.88-.25,70.07-69.81Zm-128.8,69.71l-55.72-.1,183.88-183.24,183.22,183.89h-2.82s-51.23-.09-51.23-.09l-128.44-128.9-128.9,128.45Zm-178.1,1.05l304.14-303.93,302.25,303.32-54.4.06-246.87-247.76-249.14,248.26-55.98.06Zm-852.77-2890.88l.1-53.89,69.35-69.34v.02l31.44-31.44-100.45-100.43.1-53.71,154.13,154.13-154.67,154.67Zm.34-192.35l37.66,37.68-37.81,37.8.15-75.48Zm96.92,754.75l52.53,53.2h-105.62l53.09-53.2Zm-221.76,53.2h-694.06v753.04l-35.88,35.8v-833.2h653.72c24.74,14.8,49.96,29.59,76.22,44.36m-729.94-87.69v-40.73h521.08c20.09,13.58,41.02,27.16,62.34,40.73h-583.42Zm0-84.06v-47.39h396.11c20.09,15.8,41.21,31.59,63.01,47.39h-459.12Zm0-90.73v-47.87h289.54c16.95,15.94,34.89,31.9,53.62,47.87h-343.16Zm0-91.2v-43.5h205.83c12.46,14.48,25.81,28.99,39.79,43.5h-245.61Zm80.5,1062.18v-663.89h731.21c.95.5,1.94,1.04,2.89,1.54l1.58-1.54h37.14l.38.38.38-.38h141.07l-36.69,40.44h-839.37v584.96l-38.58,38.5Zm83.21-83.03v-495.79h750.1l-37.94,37.95h-674.2v419.96l-37.96,37.88Zm82.58-82.4v-330.81h584.96l-37.33,37.32h-510.31v256.26l-37.31,37.23Zm81.94-81.76v-167.11h421.06l-35.89,36.5h-350.16v95.67l-35.01,34.94Zm79.33-79.16v-5.36h5.37l-5.37,5.36Zm-407.56-822.66v-48.46h132.52c12.06,15.89,24.75,32.1,37.76,48.46h-170.28Zm0-91.79v-36.79h73.96c8.46,12.05,17.22,24.32,26.3,36.79h-100.25Zm0-80.12v-68.19c13.48,21.52,28.05,44.18,44.18,68.19h-44.18Zm80.42,2854.94l32.82,33.33-32.82-.2v-33.14Zm0-59.89v-64.11l195.9,200.07,129.67-.14,138.61-140.58,127.93,139.85,237.07.22,321.32-336.95c10.24,17.47,19.94,34.45,29.06,50.8l-276.12,286.14h209.47s140.17-144.51,140.17-144.51c12.7,26.46,21.61,46.32,26.61,57.75l-85.43,85.45,1469.58.92-32.35-32.69h32.35v-42.01h-73.92l-32.53-32.87h106.46v-42.01h-148.03l-33.55-33.91h181.58v-42.01h-223.15l-32.72-33.07h255.88v-42.01h-297.45l-33.56-33.91h331.01v-42.01h-372.58l-33.04-33.39h405.62v-42.01h-447.19l-33.56-33.91h480.75v-42.01h-522.32l-.59-.6c-17.3,1.44-34.76,2.35-52.42,2.35-2.84,0-5.65-.18-8.47-.21l480.33,484-37.71-.07-483.86-485.86c-24.73-1.96-49.08-5.22-72.93-9.97l493.67,495.72-47.39-.09-480.92-482.61-483.46,482.6-47.4-.09,511.7-508.86c-16.01-4.71-31.75-10.03-47.21-15.96l-527.59,524.72-37.73-.08,535.88-534.82,1.31-1.4c-14.75-6.5-29.27-13.47-43.4-21.05l-17.34,17.34c-3.35-7.62-7.77-17.69-8.29-18.86-8.74-19.11-21.1-44.89-37.46-76.28,32.17,24.89,66.74,46.83,103.69,64.75l38.61,17.06c67.63,27,141.36,41.85,218.51,41.85,33.02,0,65.38-2.85,96.95-8.08h475.85v-42.01h-335.01c23.51-10.37,46.28-22.11,68.07-35.33h266.94v-42.01h-206.76c14.12-11.17,27.71-22.95,40.75-35.33h166.01v-42.01h-125.89c9.9-11.43,19.44-23.17,28.46-35.33h97.43v-42.01h-69.02c7.09-11.51,13.73-23.32,20.03-35.33h48.98v-42.01h-28.9c11.72-27.39,21.38-55.86,28.9-85.17v-293.03c-21.64-84.47-61.43-161.74-115.07-227.31l115.07,115.03v-64.15l-1160.41-1160.41,620.86-625.7-58.47-15.16-5.64,18.83-36.77,36.84-68.33-68.9-36.78,28.12,73.08,72.87-38.11,38.18-140.54-112.95-105.08-16.48-699.96,701.65c-202.11-106.09-468.46-268.91-620.99-455.76-62.21-76.22-113.84-148.3-156.35-213.01h55.13c37.23,54.27,80.95,113.65,131.73,175.86,115.48,141.48,303.73,285.12,559.51,426.92,10.43,5.78,20.54,11.22,30.7,16.7l32.89-33.3c-197.41-106.1-444.06-261.55-588.52-438.55-41.94-51.39-79.11-100.94-111.95-147.63h53.06c25.11,34.16,52.37,69.66,82.21,106.23,113.8,139.42,298.41,280.93,548.52,420.72l-.25.25c8.52,4.69,16.67,9.04,24.6,13.21,4.47,2.41,8.99,4.89,13.46,7.31l.22-.26c.99.5,2.07,1.08,3.05,1.57l397.63-396.3-194.86-195.35-33.17,25.95,164.93,169.29-342.44,341.27c-11.46-6.35-23.06-12.88-34.73-19.52l290.55-290.54v.02s31.44-31.44,31.44-31.44l-195.03-195.03-30.3,27.58,162.45,167.44-298.95,298.94c-10.97-6.45-22-13.05-33.06-19.73l247.77-247.78.02.02,31.44-31.44-195.05-195.03-30.74,28.39,162.91,166.63-255.29,255.28c-11.11-6.95-22.21-14.01-33.32-21.18l202.67-202.67.03.02,31.43-31.44-195.03-195.03-33.57,28.66,165.72,166.36-209.17,209.17c-11.27-7.55-22.48-15.19-33.66-22.94l154.79-154.8.02.02,31.44-31.44-195.03-195.03h-66.54l-.59,326.08c-13.48-10.26-26.74-20.68-39.82-31.22l.53-294.86h-44.64l-.45,257.6c-12.96-11.25-25.65-22.62-37.99-34.14l.4-223.47h-44.65l-.31,179.69c-13.52-14.02-26.32-28.22-38.62-42.55l.23-137.14h-44.64l-.14,82.6c-22.19-28.24-42.96-55.84-62.32-82.6h-626.02v3282.43h44.46v-3239.8h40.23c11.37,23.01,26.09,51.43,44.58,84.51,47.02,84.15,128.08,215.09,247.2,361,115.47,141.49,303.71,285.13,559.49,426.94,6.73,3.73,13.28,7.25,19.88,10.84l32.92-33.32c-195.53-105.92-435.84-258.84-577.73-432.66-142.25-174.3-230.47-327.89-276.19-417.31h48.97c3.38,6.2,6.87,12.55,10.55,19.13,47.02,84.15,128.08,215.08,247.2,361.02,115.47,141.48,303.72,285.12,559.5,426.92,17.2,9.54,33.87,18.49,50.35,27.25l-88.24,88.35h-10.84c-197.34-105.22-447.34-261.04-595.04-439.31v-1.19h-1.02c-1.01-1.22-2.12-2.41-3.12-3.64-135.31-165.77-221.82-312.99-269.33-403.98v93.09c.11.19.24.4.35.59v1587.64l-1.32,1.32,1.32,1.32v60.46l452.02-451.11v-.23l68.3-68.16h65.2l-585.53,579.78v60.93l648.77-640.71h62.86l-711.62,710.29v1230.56h44.46v-1211.56l1085.84-1087.98-102.09-103.42,35.48-35.55,128.85,129.96-1067.64,1085.53v-2.75l-44.46,44.1v1181.66h38.59l139.58.83-133.72-135.83Zm-938.64-2136.85c-33.7,12.73-70.04,20.02-108.14,20.02s-74.44-7.29-108.14-20.02h216.28Zm-294.3-43.33c-15.52-11.86-29.83-25.14-42.83-39.68h457.98c-13,14.54-27.31,27.82-42.83,39.68h-372.32Zm-75.19-83.01c-9.38-15.16-17.53-31.12-24.2-47.87h571.11c-6.67,16.76-14.82,32.71-24.2,47.87h-522.71Zm-37.75-91.2c-3.6-15.4-6-31.21-7.18-47.39h612.57c-1.18,16.18-3.58,32-7.18,47.39h-598.21Zm-7.26-90.73c1.1-16.34,3.4-32.33,6.96-47.87h598.8c3.57,15.54,5.86,31.53,6.96,47.87h-612.73Zm20.39-91.2c5.96-15.14,13.09-29.64,21.27-43.5h529.42c8.18,13.86,15.31,28.36,21.27,43.5h-571.95Zm51.97-86.83c10.32-12.12,21.58-23.38,33.64-33.77h400.74c12.05,10.4,23.32,21.65,33.64,33.77h-468.01Zm99.43-77.1c40.71-19.94,86.27-31.44,134.57-31.44s93.86,11.51,134.57,31.44h-269.14Zm-80.52,561.3v2.09h2.8c59.41,44,132.86,70.08,212.3,70.08,197.12,0,357.49-160.37,357.49-357.48s-160.37-357.47-357.49-357.47-357.48,160.36-357.48,357.47c0,116.43,55.97,220,142.39,285.32m889.55-285.32c0,276.48-167.24,514.56-405.84,618.56l-35.1-31.27c233.3-93.08,398.65-321.17,398.65-587.29,0-348.57-283.59-632.16-632.17-632.16s-632.16,283.58-632.16,632.16c0,317.08,234.75,580.05,539.53,625l54.27,48.35h-.02l55.89,49.79s.01,0,.01,0l382.79,341.04-82.15.17-330.89-294.79v-1.02s-1.14,0-1.14,0l-123.29-109.84-1.41,1.59-.24-.21c-305.53-64.17-535.66-335.74-535.66-660.08,0-371.9,302.57-674.46,674.47-674.46s674.46,302.56,674.46,674.46m-936.63-673.97c-51.43,20.08-100.08,45.76-145.04,76.5l70.2-76.5h74.85Zm-506.55,729.54v-259.04l138.52-150.97c-59.19,104.83-93.15,225.71-93.15,354.44,0,18.76.91,37.29,2.32,55.69l-47.69-.12Zm-50.41,50.28h.17s0,.13,0,.13l103.48.34c2.28,15.42,5.18,30.64,8.42,45.73l-153.3-.21v-255.43l41.24-44.95v254.38Zm233.61,318.12c20.66,28.46,43.3,55.37,67.79,80.5l-67.55.21-.25-80.71Zm179.68-1097.95l-505.17,559.22.23.35v316.59l216.28.29c14.53,49.74,34.41,97.19,58.72,141.9h-.4s.65,210.88.65,210.88l170.05-.54v-1.53c18.78,15.83,38.41,30.67,58.75,44.55l-273.64,1.94-.41-346.78-276.44-.98v-403.7l480.17-522.19h71.22Zm223.99,1373.99c10.85,2.82,21.81,5.32,32.84,7.67l68.72,61.22-101.9.55.34-69.44Zm-51,120.13l208.81-1.13,47.27,42.11-297.91.82.45-192.75c13.81,5.68,27.81,10.99,42.04,15.83l-.65,135.12Zm-131-195.32c12.85,7.51,25.91,14.71,39.25,21.44l-.61,266.24,404.85-1.12,53.02,47.24-496.51.97v-334.77Zm-177.08,150.73l-41.27.24-29.71-29.78,99.84-.6.14,100.83-28.94-29.01-.07-41.68Zm79.2-80.87l-200.17,1.21-45.49-45.61,293.13-2.08v295.95l-48.61-48.74h1.43s-.28-200.73-.28-200.73Zm-129.53,134.93v.73s.73,0,.73,0l176.26,176.89v2.86h2.84s71.46,71.71,71.46,71.71L24.58,5668.03l.09-53.27,539.36-539.35h.02s31.44-31.41,31.44-31.41L26.69,4475.21l.1-57.08,372.55,373.88Zm-242.21-305.72l-35.85-35.94-.08-51.2-50.83.15-34.32-34.41,122.09.16-1,121.23Zm-130.56,51.68l506.01,506.01-507.8,507.82.09-52.9,423.47-423.48h.02s31.43-31.41,31.43-31.41l-453.31-453.32.09-52.71Zm-.2,115.47l390.54,390.54-391.93,391.93.09-54.6,305.9-305.9h.02s31.43-31.41,31.43-31.41l-336.15-336.16.09-54.4Zm-.21,117.16l273.38,273.39-274.35,274.35.1-56.7,186.22-186.22h.02s31.43-31.41,31.43-31.41l-216.89-216.91.1-56.5Zm-.21,119.25l154.12,154.13-154.67,154.68.09-53.9,69.35-69.35h.02s31.43-31.41,31.43-31.41l-100.44-100.44.1-53.71Zm-.21,116.46l37.67,37.67-37.81,37.8.13-75.48Zm60.24,663.53l39.57-39.43,1030.55-2.07-41.91,41.5H85.99Zm983.32,44.46l-55.68,55.14v-55.14h55.68Zm131.78-130.5l-1030.92,2.17,46.64-46.48,1031.11-2.07-46.84,46.38Zm91.82-90.92l-1031.5,2.17,53.76-53.57,1031.73-2.07-53.99,53.46Zm98.97-98.01l-1032.11,2.17,46.64-46.48,1032.3-2.07-46.84,46.38Zm91.82-90.92l-1032.69,2.17,51.42-51.24,1032.89-2.06-51.63,51.13Zm96.61-95.67l-1033.28,2.17,46.64-46.47,1033.47-2.07-46.83,46.38Zm91.82-90.92l-1033.85,2.18,47.22-47.06,1034.09-2.12-47.46,47Zm70.04-6.79v61.31l-728.54,721.45v-61.31l728.54-721.45Zm0,123.87v70.55l-728.54,721.46v-70.55l728.54-721.46Zm0,133.11v69.31l-728.54,721.47v-69.32l728.54-721.45Zm0,131.87v63.52l-728.54,724.28v-66.34l728.54-721.46Zm0,126.21v65.57l-728.54,721.46v-62.75l728.54-724.27Zm-1044.7-597.62l-55.48-55.62,533.87-1.04v-3.46s66.23,59.01,66.23,59.01l-544.61,1.12Zm760.12-1.57l-387.35-345.1h0l-50.67-45.15h0l-47.26-42.1c.05,0,.11,0,.16,0l-60.48-53.89c-284.55-38.53-504.64-282.87-504.64-577.82,0-321.61,261.65-583.26,583.26-583.26s583.27,261.65,583.27,583.26c0,254.28-163.66,470.84-391.09,550.46l-31.8-28.34c223.18-68.68,385.89-276.7,385.89-522.12,0-301.2-245.04-546.26-546.26-546.26s-546.26,245.05-546.26,546.26,226.19,526.76,511.01,545.01l136.75,121.83s-.01,0-.02,0l46.35,41.29s0,0,.01,0l399.32,355.75-80.18.17Zm-870.59-1064.04c0-222.55,181.06-403.6,403.6-403.6s403.61,181.05,403.61,403.6-181.06,403.6-403.61,403.6-403.6-181.05-403.6-403.6m1017.43,1063.74l-626.19-557.88-.21.24-10.43-9.29c-263.6-12.06-474.34-230.28-474.34-496.8s223.11-497.36,497.35-497.36,497.36,223.12,497.36,497.36c0,234-162.49,430.63-380.52,483.34l-41.75-37.2c213.88-35.89,377.41-222.23,377.41-446.15,0-249.51-202.99-452.49-452.5-452.49s-452.5,202.98-452.5,452.49,202.99,452.49,452.5,452.49c5.02,0,10-.22,14.98-.38l88.7,79.02,4.8,4.28,128.84,114.79,26.23,23.38h0l437.72,389.98-87.46.18Zm-92.39-563.08c16.4-17.07,31.96-34.94,46.65-53.55v438.26l-46.65-41.56v-343.15Zm-134.53,223.3l-78.55-69.98c27.11-12.86,53.4-27.18,78.55-43.16v113.14Zm43.33-142.92c16.53-12.27,32.47-25.27,47.87-38.86v263.03l-47.87-42.65v-181.51Zm229.79,386.24l-47.87-42.65v-539.79c17.92-28.39,33.97-58.07,47.87-88.93v671.37Zm-774.29,784.64v45.21H-4l45.37-45.21h834.95Zm-190.46,179.32v45.21H136.47v449.11h-34.6v-494.33h584ZM57.41,6477.61h-31.39v-584h31.39v584Zm123.51-180.19v-314.14h414.55v45.53H217.31v268.6h-36.38Zm80.83-92.84v-131.3h239.96v48.39h-198.72v82.92h-41.24Zm153.45,0h-67.76v-38.46h67.76v38.46Zm44.46-38.46h42.04v131.3h-239.96v-48.39h197.91v-82.92Zm42.04,175.77h44.46v-268.61h49.3v314.66H180.93v-46.06h320.79Zm-399.85,135.72v-45.21h515.64v-.08h22.42v-449.03h45.94v494.33H101.87Zm1500.15-2901.05v-338.56h-43.33v277.39c-14.68-18.62-30.24-36.49-46.65-53.57v-223.81h-43.33v182.22c-15.41-13.61-31.33-26.65-47.87-38.93v-143.29h-43.33v113.67c-14.38-9.14-29.01-17.92-44.05-26.05v-87.62h-43.33v66.22c-13.85-6.32-27.9-12.26-42.19-17.72v-48.5h-43.33v33.36c-67.66-20.99-139.53-32.33-214-32.33-14.26,0-28.39.53-42.45,1.34v-2.38H345.86s-3.92,0-3.92,0l-308.57,335.19v-64.82l249.26-270.37h-68.91l-.36.4h-62.9l.36-.4h-68.77l-.36.4h-2.03v2.2l-46.29,50.28v-52.88H-17.05v182.09l121.03-131.29h62.96l-183.99,199.87v139.28h0v74.3l381.52-413.84h80.07L-17.06,3791.14v74.29h0s0,399.1,0,399.1l276.5.98.38,323.72-52.69-52.83,1.83-221.71-225.74-.3v6.72h-.92l-2.53,1438.38h-.19v44.45h801.51v45.21H-18.42v672.9H13.09s44.32,0,44.32,0h672.92v-628.45h50.76v623.52h44.46v-713.18h50.78v716.36h44.46v-806.02h48.39v99.17l-1.2,1.19,1.2,1.21v121.48l-1.2,1.19,1.2,1.21v130.72l-1.2,1.19,1.2,1.21v129.49l-1.19,1.18,1.19,1.2v126.69l-.46.46.46.46v124.34l-1.2,1.19,1.2,1.21v61.26h0s44.46,0,44.46,0h0v-45.13l45.74-45.3v92.18h44.46v-136.2l39.67-39.29v174.56h44.46v-218.59l40.82-40.43v259.48h44.46v-303.51l41.73-41.33v344.83h44.46v-388.85l39.67-39.29v427.22h44.46v-471.25l41.49-41.09v512.8h44.46v-556.82l41.73-41.33v598.15h44.46v-642.18l39.67-39.29v680.54h44.45v-724.57l42.34-41.93v767.41h44.46v-3282.43h-44.46v1772.5l-51.4-45.79h3.18v-833.9c13.05-54.28,20.01-110.9,20.01-169.13s-7.38-117.38-21.01-172.77h1v-550.9h-43.32v428.24c-14.1-31.38-30.35-61.57-48.61-90.4"/><rect class="cls-3" x="-27.86" y="3276.55" width="4736.54" height="3299.53"/><rect class="cls-3" x="-21.42" y="-1.65" width="9445.3" height="6571.29"/><text class="cls-1" transform="translate(459.26 6487.97)"><tspan x="0" y="0" xml:space="preserve">SU_Rebrand_Bannerwall_landscape_white_final.indd   1</tspan></text><text class="cls-1" transform="translate(8899.2 6487.97)"><tspan x="0" y="0" xml:space="preserve">2021/11/29   09:26</tspan></text></svg>